<svg width="163" height="38" viewBox="0 0 163 38" fill="none" xmlns="http://www.w3.org/2000/svg">
<path d="M1.186 30C0.975155 30 0.777488 29.9209 0.593 29.7628C0.434866 29.5783 0.3558 29.3806 0.3558 29.1698C0.3558 29.038 0.368978 28.9194 0.395333 28.814L9.68566 3.43362C9.76473 3.14371 9.92286 2.89333 10.1601 2.68249C10.4236 2.44529 10.7794 2.32669 11.2275 2.32669H17.0784C17.5264 2.32669 17.8691 2.44529 18.1063 2.68249C18.3698 2.89333 18.5411 3.14371 18.6202 3.43362L27.871 28.814C27.9237 28.9194 27.95 29.038 27.95 29.1698C27.95 29.3806 27.8578 29.5783 27.6733 29.7628C27.5152 29.9209 27.3175 30 27.0803 30H22.2177C21.8224 30 21.5193 29.9078 21.3085 29.7233C21.124 29.5124 21.0054 29.3279 20.9527 29.1698L19.4109 25.1374H8.85546L7.35319 29.1698C7.30048 29.3279 7.18188 29.5124 6.99739 29.7233C6.81291 29.9078 6.49664 30 6.0486 30H1.186ZM10.4763 19.4446H17.8295L14.1134 9.00782L10.4763 19.4446ZM39.7958 30C38.1091 30 36.6463 29.7364 35.4076 29.2093C34.1953 28.6559 33.2597 27.8125 32.6008 26.6792C31.9419 25.5196 31.6124 24.0305 31.6124 22.2119V14.6215H28.5288C28.2389 14.6215 27.9885 14.5293 27.7777 14.3448C27.5932 14.1603 27.501 13.9231 27.501 13.6332V10.431C27.501 10.1411 27.5932 9.9039 27.7777 9.71942C27.9885 9.53493 28.2389 9.44268 28.5288 9.44268H31.6124V2.91969C31.6124 2.62978 31.7047 2.39258 31.8892 2.20809C32.1 2.0236 32.3372 1.93135 32.6008 1.93135H37.1866C37.4765 1.93135 37.7137 2.0236 37.8982 2.20809C38.0827 2.39258 38.175 2.62978 38.175 2.91969V9.44268H43.1166C43.4065 9.44268 43.6437 9.53493 43.8282 9.71942C44.0127 9.9039 44.105 10.1411 44.105 10.431V13.6332C44.105 13.9231 44.0127 14.1603 43.8282 14.3448C43.6437 14.5293 43.4065 14.6215 43.1166 14.6215H38.175V21.6585C38.175 22.5546 38.3463 23.2662 38.6889 23.7933C39.0315 24.3204 39.6113 24.5839 40.4284 24.5839H43.4724C43.7623 24.5839 43.9995 24.6762 44.184 24.8607C44.3685 25.0452 44.4608 25.2824 44.4608 25.5723V29.0117C44.4608 29.3016 44.3685 29.5388 44.184 29.7233C43.9995 29.9078 43.7623 30 43.4724 30H39.7958ZM58.2499 30C56.5631 30 55.1004 29.7364 53.8617 29.2093C52.6493 28.6559 51.7137 27.8125 51.0548 26.6792C50.3959 25.5196 50.0665 24.0305 50.0665 22.2119V14.6215H46.9829C46.6929 14.6215 46.4426 14.5293 46.2317 14.3448C46.0472 14.1603 45.955 13.9231 45.955 13.6332V10.431C45.955 10.1411 46.0472 9.9039 46.2317 9.71942C46.4426 9.53493 46.6929 9.44268 46.9829 9.44268H50.0665V2.91969C50.0665 2.62978 50.1587 2.39258 50.3432 2.20809C50.554 2.0236 50.7912 1.93135 51.0548 1.93135H55.6407C55.9306 1.93135 56.1678 2.0236 56.3523 2.20809C56.5367 2.39258 56.629 2.62978 56.629 2.91969V9.44268H61.5706C61.8606 9.44268 62.0978 9.53493 62.2822 9.71942C62.4667 9.9039 62.559 10.1411 62.559 10.431V13.6332C62.559 13.9231 62.4667 14.1603 62.2822 14.3448C62.0978 14.5293 61.8606 14.6215 61.5706 14.6215H56.629V21.6585C56.629 22.5546 56.8003 23.2662 57.1429 23.7933C57.4855 24.3204 58.0654 24.5839 58.8824 24.5839H61.9264C62.2164 24.5839 62.4536 24.6762 62.638 24.8607C62.8225 25.0452 62.9148 25.2824 62.9148 25.5723V29.0117C62.9148 29.3016 62.8225 29.5388 62.638 29.7233C62.4536 29.9078 62.2164 30 61.9264 30H58.2499ZM67.1763 30C66.8864 30 66.6492 29.9078 66.4647 29.7233C66.2803 29.5388 66.188 29.3016 66.188 29.0117V10.431C66.188 10.1411 66.2803 9.9039 66.4647 9.71942C66.6492 9.53493 66.8864 9.44268 67.1763 9.44268H71.8413C72.1048 9.44268 72.3288 9.53493 72.5133 9.71942C72.7242 9.9039 72.8296 10.1411 72.8296 10.431V29.0117C72.8296 29.3016 72.7242 29.5388 72.5133 29.7233C72.3288 29.9078 72.1048 30 71.8413 30H67.1763ZM67.1368 6.47768C66.8469 6.47768 66.6097 6.38544 66.4252 6.20095C66.2407 6.01646 66.1485 5.77926 66.1485 5.48935V1.97089C66.1485 1.68098 66.2407 1.44378 66.4252 1.25929C66.6097 1.04844 66.8469 0.943022 67.1368 0.943022H71.8413C72.1312 0.943022 72.3684 1.04844 72.5529 1.25929C72.7637 1.44378 72.8691 1.68098 72.8691 1.97089V5.48935C72.8691 5.77926 72.7637 6.01646 72.5529 6.20095C72.3684 6.38544 72.1312 6.47768 71.8413 6.47768H67.1368ZM78.4495 30C78.1596 30 77.9224 29.9078 77.7379 29.7233C77.5534 29.5388 77.4612 29.3016 77.4612 29.0117V10.431C77.4612 10.1675 77.5534 9.94344 77.7379 9.75895C77.9224 9.5481 78.1596 9.44268 78.4495 9.44268H82.9958C83.2858 9.44268 83.523 9.5481 83.7074 9.75895C83.8919 9.94344 83.9842 10.1675 83.9842 10.431V12.0123C84.6958 11.1953 85.5392 10.5628 86.5143 10.1147C87.5158 9.6667 88.6359 9.44268 89.8746 9.44268H91.6141C91.8777 9.44268 92.1017 9.53493 92.2862 9.71942C92.497 9.9039 92.6024 10.1411 92.6024 10.431V14.5029C92.6024 14.7665 92.497 15.0037 92.2862 15.2145C92.1017 15.399 91.8777 15.4913 91.6141 15.4913H87.7794C86.6988 15.4913 85.8554 15.7944 85.2492 16.4005C84.6694 16.9804 84.3795 17.8106 84.3795 18.8911V29.0117C84.3795 29.3016 84.2741 29.5388 84.0632 29.7233C83.8788 29.9078 83.6416 30 83.3516 30H78.4495ZM104.747 30.3953C101.637 30.3953 99.1595 29.552 97.3146 27.8652C95.4697 26.1784 94.5078 23.6747 94.4287 20.3539C94.4287 20.1694 94.4287 19.9322 94.4287 19.6423C94.4287 19.3524 94.4287 19.1283 94.4287 18.9702C94.5078 16.8881 94.969 15.1091 95.8124 13.6332C96.6821 12.1309 97.8681 10.9977 99.3704 10.2333C100.899 9.44268 102.678 9.04735 104.707 9.04735C107.027 9.04735 108.937 9.50857 110.44 10.431C111.968 11.3535 113.115 12.6053 113.879 14.1867C114.643 15.768 115.026 17.5734 115.026 19.6027V20.5515C115.026 20.8415 114.92 21.0787 114.709 21.2631C114.525 21.4476 114.301 21.5399 114.037 21.5399H101.387C101.387 21.5662 101.387 21.6058 101.387 21.6585C101.387 21.7112 101.387 21.7639 101.387 21.8166C101.413 22.5809 101.545 23.2793 101.782 23.9119C102.019 24.5444 102.388 25.0452 102.889 25.4141C103.39 25.7831 103.996 25.9676 104.707 25.9676C105.234 25.9676 105.669 25.8885 106.012 25.7304C106.381 25.5459 106.684 25.3482 106.921 25.1374C107.158 24.9002 107.343 24.7025 107.475 24.5444C107.712 24.2808 107.896 24.1227 108.028 24.07C108.186 23.9909 108.423 23.9514 108.74 23.9514H113.642C113.905 23.9514 114.116 24.0305 114.274 24.1886C114.459 24.3204 114.538 24.518 114.512 24.7816C114.485 25.2296 114.261 25.7699 113.84 26.4025C113.418 27.035 112.798 27.6675 111.981 28.3001C111.191 28.9062 110.189 29.407 108.977 29.8023C107.765 30.1977 106.355 30.3953 104.747 30.3953ZM101.387 17.6261H108.068V17.547C108.068 16.7036 107.936 15.9657 107.672 15.3331C107.435 14.7006 107.053 14.213 106.526 13.8704C106.025 13.5278 105.419 13.3565 104.707 13.3565C103.996 13.3565 103.39 13.5278 102.889 13.8704C102.414 14.213 102.045 14.7006 101.782 15.3331C101.518 15.9657 101.387 16.7036 101.387 17.547V17.6261ZM119.72 30C119.43 30 119.193 29.9078 119.009 29.7233C118.824 29.5388 118.732 29.3016 118.732 29.0117V2.91969C118.732 2.62978 118.824 2.39258 119.009 2.20809C119.193 2.0236 119.43 1.93135 119.72 1.93135H124.385C124.675 1.93135 124.912 2.0236 125.097 2.20809C125.281 2.39258 125.373 2.62978 125.373 2.91969V29.0117C125.373 29.3016 125.281 29.5388 125.097 29.7233C124.912 29.9078 124.675 30 124.385 30H119.72ZM131.032 30C130.742 30 130.505 29.9078 130.32 29.7233C130.136 29.5388 130.044 29.3016 130.044 29.0117V2.91969C130.044 2.62978 130.136 2.39258 130.32 2.20809C130.505 2.0236 130.742 1.93135 131.032 1.93135H135.697C135.987 1.93135 136.224 2.0236 136.408 2.20809C136.593 2.39258 136.685 2.62978 136.685 2.91969V29.0117C136.685 29.3016 136.593 29.5388 136.408 29.7233C136.224 29.9078 135.987 30 135.697 30H131.032ZM145.19 37.5113C144.953 37.5113 144.755 37.4323 144.597 37.2741C144.439 37.116 144.36 36.9183 144.36 36.6811C144.36 36.6284 144.36 36.5494 144.36 36.4439C144.386 36.3649 144.426 36.2726 144.478 36.1672L147.562 28.7349L139.972 10.7868C139.893 10.6023 139.853 10.4442 139.853 10.3124C139.906 10.0752 140.011 9.87755 140.169 9.71942C140.327 9.53493 140.525 9.44268 140.762 9.44268H145.269C145.612 9.44268 145.862 9.53493 146.02 9.71942C146.205 9.87755 146.323 10.062 146.376 10.2729L150.922 21.7771L155.548 10.2729C155.653 10.062 155.785 9.87755 155.943 9.71942C156.128 9.53493 156.391 9.44268 156.734 9.44268H161.162C161.399 9.44268 161.596 9.53493 161.755 9.71942C161.939 9.87755 162.031 10.062 162.031 10.2729C162.031 10.4047 161.992 10.576 161.913 10.7868L150.725 36.6811C150.646 36.892 150.514 37.0765 150.329 37.2346C150.145 37.4191 149.881 37.5113 149.539 37.5113H145.19Z" fill="#272727"/>
</svg>
