<svg width="24" height="24" viewBox="0 0 24 24" fill="none" xmlns="http://www.w3.org/2000/svg">
<path fill-rule="evenodd" clip-rule="evenodd" d="M22.6045 12.2615C22.6045 11.446 22.5313 10.6619 22.3954 9.90918H11.5645V14.3576H17.7535C17.487 15.7951 16.6767 17.013 15.4588 17.8285V20.714H19.1754C21.3499 18.7119 22.6045 15.7637 22.6045 12.2615Z" fill="#4285F4"/>
<path fill-rule="evenodd" clip-rule="evenodd" d="M11.5639 23.5001C14.6689 23.5001 17.2721 22.4703 19.1748 20.7139L15.4582 17.8285C14.4285 18.5185 13.1112 18.9262 11.5639 18.9262C8.5687 18.9262 6.03347 16.9032 5.12915 14.1851H1.28711V17.1646C3.17938 20.923 7.06847 23.5001 11.5639 23.5001Z" fill="#34A853"/>
<path fill-rule="evenodd" clip-rule="evenodd" d="M5.12968 14.185C4.89968 13.495 4.769 12.7579 4.769 12C4.769 11.242 4.89968 10.505 5.12968 9.81499V6.83545H1.28763C0.508771 8.38795 0.0644531 10.1443 0.0644531 12C0.0644531 13.8557 0.508771 15.612 1.28763 17.1645L5.12968 14.185Z" fill="#FBBC05"/>
<path fill-rule="evenodd" clip-rule="evenodd" d="M11.5639 5.07386C13.2523 5.07386 14.7682 5.65409 15.9601 6.79364L19.2585 3.49523C17.2669 1.63955 14.6637 0.5 11.5639 0.5C7.06847 0.5 3.17938 3.07705 1.28711 6.83545L5.12916 9.815C6.03347 7.09682 8.5687 5.07386 11.5639 5.07386Z" fill="#EA4335"/>
</svg>
