<svg width="37" height="37" viewBox="0 0 37 37" fill="none" xmlns="http://www.w3.org/2000/svg">
<path d="M10.9305 22.3612L18.9129 14.3789M15.2845 26.7152L18.9129 23.0869M2.82333 18.8577L18.788 2.89296C19.3323 2.34857 20.0705 2.04264 20.8402 2.04248H32.7006C33.4704 2.04248 34.2087 2.3483 34.7531 2.89265C35.2974 3.43701 35.6033 4.17532 35.6033 4.94516V16.8055C35.6031 17.5753 35.2972 18.3135 34.7528 18.8577L18.788 34.8224C18.2437 35.3666 17.5055 35.6723 16.7359 35.6723C15.9662 35.6723 15.228 35.3666 14.6837 34.8224L2.82333 22.9621C2.27916 22.4177 1.97346 21.6796 1.97346 20.9099C1.97346 20.1402 2.27916 19.402 2.82333 18.8577Z" stroke="black" stroke-width="2.23283" stroke-linecap="round" stroke-linejoin="round"/>
<path d="M29.7983 9.29997C29.7983 9.68489 29.6454 10.054 29.3732 10.3262C29.1011 10.5984 28.7319 10.7513 28.347 10.7513C27.9621 10.7513 27.5929 10.5984 27.3207 10.3262C27.0486 10.054 26.8957 9.68489 26.8957 9.29997C26.8957 8.91505 27.0486 8.5459 27.3207 8.27372C27.5929 8.00154 27.9621 7.84863 28.347 7.84863C28.7319 7.84863 29.1011 8.00154 29.3732 8.27372C29.6454 8.5459 29.7983 8.91505 29.7983 9.29997Z" fill="black"/>
</svg>
