<svg width="87" height="87" viewBox="0 0 87 87" fill="none" xmlns="http://www.w3.org/2000/svg">
<rect x="0.5" y="0.5" width="86" height="86" rx="43" fill="#545454" fill-opacity="0.1"/>
<path d="M52 26C54.6522 26 57.1957 27.0536 59.0711 28.9289C60.9464 30.8043 62 33.3478 62 36V52C62 54.6522 60.9464 57.1957 59.0711 59.0711C57.1957 60.9464 54.6522 62 52 62H36C33.3478 62 30.8043 60.9464 28.9289 59.0711C27.0536 57.1957 26 54.6522 26 52V36C26 33.3478 27.0536 30.8043 28.9289 28.9289C30.8043 27.0536 33.3478 26 36 26H52ZM44 36C41.8783 36 39.8434 36.8429 38.3431 38.3431C36.8429 39.8434 36 41.8783 36 44C36 46.1217 36.8429 48.1566 38.3431 49.6569C39.8434 51.1571 41.8783 52 44 52C46.1217 52 48.1566 51.1571 49.6569 49.6569C51.1571 48.1566 52 46.1217 52 44C52 41.8783 51.1571 39.8434 49.6569 38.3431C48.1566 36.8429 46.1217 36 44 36ZM44 40C45.0609 40 46.0783 40.4214 46.8284 41.1716C47.5786 41.9217 48 42.9391 48 44C48 45.0609 47.5786 46.0783 46.8284 46.8284C46.0783 47.5786 45.0609 48 44 48C42.9391 48 41.9217 47.5786 41.1716 46.8284C40.4214 46.0783 40 45.0609 40 44C40 42.9391 40.4214 41.9217 41.1716 41.1716C41.9217 40.4214 42.9391 40 44 40ZM53 33C52.4696 33 51.9609 33.2107 51.5858 33.5858C51.2107 33.9609 51 34.4696 51 35C51 35.5304 51.2107 36.0391 51.5858 36.4142C51.9609 36.7893 52.4696 37 53 37C53.5304 37 54.0391 36.7893 54.4142 36.4142C54.7893 36.0391 55 35.5304 55 35C55 34.4696 54.7893 33.9609 54.4142 33.5858C54.0391 33.2107 53.5304 33 53 33Z" fill="black"/>
</svg>
