<svg width="87" height="86" viewBox="0 0 87 86" fill="none" xmlns="http://www.w3.org/2000/svg">
<rect x="0.5" width="86" height="86" rx="43" fill="#545454" fill-opacity="0.1"/>
<path d="M41.1299 23.1501C40.3419 23.5281 39.6199 24.1441 38.6099 25.0061L38.4519 25.1381C37.5799 25.9242 36.4642 26.3866 35.2919 26.4481L35.0879 26.4641C33.7639 26.5701 32.8179 26.6441 31.9939 26.9361C31.0574 27.267 30.2067 27.8031 29.5042 28.5053C28.8017 29.2074 28.2652 30.0578 27.9339 30.9941C27.6439 31.8181 27.5699 32.7641 27.4639 34.0881L27.4479 34.2921C27.3864 35.4645 26.9239 36.5801 26.1379 37.4521L26.0059 37.6081C25.1439 38.6201 24.5259 39.3421 24.1499 40.1301C23.7219 41.0263 23.4998 42.0069 23.4998 43.0001C23.4998 43.9933 23.7219 44.9739 24.1499 45.8701C24.5279 46.6581 25.1439 47.3801 26.0059 48.3901L26.1379 48.5481C26.9579 49.5081 27.3459 50.4261 27.4479 51.7081L27.4639 51.9121C27.5699 53.2361 27.6439 54.1821 27.9359 55.0061C28.2667 55.9426 28.8029 56.7933 29.505 57.4958C30.2072 58.1982 31.0575 58.7348 31.9939 59.0661C32.8179 59.3561 33.7639 59.4301 35.0879 59.5361L35.2919 59.5521C36.5499 59.6521 37.4719 60.0281 38.4519 60.8621L38.6099 60.9941C39.6199 61.8561 40.3419 62.4741 41.1299 62.8501C42.0261 63.2781 43.0067 63.5002 43.9999 63.5002C44.993 63.5002 45.9736 63.2781 46.8699 62.8501C47.6579 62.4721 48.3799 61.8561 49.3899 60.9941L49.5479 60.8621C50.5079 60.0421 51.4259 59.6541 52.7079 59.5521L52.9119 59.5361C54.2359 59.4301 55.1819 59.3561 56.0059 59.0641C56.9424 58.7333 57.793 58.1971 58.4955 57.495C59.198 56.7928 59.7346 55.9425 60.0659 55.0061C60.3559 54.1821 60.4299 53.2361 60.5359 51.9121L60.5519 51.7081C60.6519 50.4501 61.0279 49.5281 61.8619 48.5481L61.9939 48.3901C62.8559 47.3801 63.4739 46.6581 63.8499 45.8701C64.2779 44.9739 64.5 43.9933 64.5 43.0001C64.5 42.0069 64.2779 41.0263 63.8499 40.1301C63.4719 39.3421 62.8559 38.6201 61.9939 37.6101L61.8619 37.4521C61.0758 36.5801 60.6133 35.4645 60.5519 34.2921L60.5359 34.0881C60.4299 32.7641 60.3559 31.8181 60.0639 30.9941C59.733 30.0576 59.1969 29.207 58.4947 28.5045C57.7926 27.802 56.9422 27.2654 56.0059 26.9341C55.1819 26.6441 54.2359 26.5701 52.9119 26.4641L52.7079 26.4481C51.5355 26.3866 50.4199 25.9242 49.5479 25.1381L49.3899 25.0061C48.3799 24.1441 47.6579 23.5261 46.8699 23.1501C45.9736 22.7221 44.993 22.5 43.9999 22.5C43.0067 22.5 42.0261 22.7221 41.1299 23.1501ZM36.4999 34.0001C36.4999 33.6023 36.6579 33.2208 36.9392 32.9395C37.2205 32.6582 37.602 32.5001 37.9999 32.5001H49.9999C50.3977 32.5001 50.7792 32.6582 51.0605 32.9395C51.3418 33.2208 51.4999 33.6023 51.4999 34.0001C51.4999 34.3979 51.3418 34.7795 51.0605 35.0608C50.7792 35.3421 50.3977 35.5001 49.9999 35.5001H46.4119C46.8879 36.2861 47.2019 37.1601 47.3639 38.0561H49.9999C50.3977 38.0561 50.7792 38.2142 51.0605 38.4955C51.3418 38.7768 51.4999 39.1583 51.4999 39.5561C51.4999 39.9539 51.3418 40.3355 51.0605 40.6168C50.7792 40.8981 50.3977 41.0561 49.9999 41.0561H47.3639C47.1594 42.2438 46.6639 43.3625 45.9219 44.3121C45.3876 44.9845 44.7166 45.5357 43.9532 45.9291C43.1898 46.3226 42.3515 46.5492 41.4939 46.5941L47.5839 52.9641C47.8461 53.2538 47.985 53.6345 47.9708 54.025C47.9567 54.4156 47.7907 54.7852 47.5082 55.0552C47.2257 55.3252 46.8489 55.4743 46.4582 55.4707C46.0674 55.4671 45.6934 55.3112 45.4159 55.0361L36.9159 46.1481C36.713 45.9357 36.577 45.6685 36.5247 45.3795C36.4723 45.0906 36.5059 44.7926 36.6214 44.5226C36.7368 44.2525 36.9289 44.0223 37.174 43.8605C37.419 43.6986 37.7062 43.6123 37.9999 43.6121H40.9999C42.1999 43.6121 43.0239 43.1321 43.5799 42.4381C43.9025 42.0278 44.1416 41.5583 44.2839 41.0561H37.9999C37.602 41.0561 37.2205 40.8981 36.9392 40.6168C36.6579 40.3355 36.4999 39.9539 36.4999 39.5561C36.4999 39.1583 36.6579 38.7768 36.9392 38.4955C37.2205 38.2142 37.602 38.0561 37.9999 38.0561H44.2839C44.1416 37.5539 43.9025 37.0844 43.5799 36.6741C43.0239 35.9801 42.1999 35.5001 40.9999 35.5001H37.9999C37.602 35.5001 37.2205 35.3421 36.9392 35.0608C36.6579 34.7795 36.4999 34.3979 36.4999 34.0001Z" fill="black"/>
</svg>
