<svg width="98" height="97" viewBox="0 0 98 97" fill="none" xmlns="http://www.w3.org/2000/svg">
<path d="M49 97C75.7858 97 97.5 75.2858 97.5 48.5C97.5 21.7142 75.7858 0 49 0C22.2142 0 0.5 21.7142 0.5 48.5C0.5 75.2858 22.2142 97 49 97Z" fill="#FFDD55"/>
<path d="M15.7549 59.0793L53.4687 96.7931C77.9792 94.5538 97.2139 74.0803 97.4935 49.0521L82.2461 33.8047L15.7549 59.0793Z" fill="#FFCC00"/>
<path d="M49.0005 59.0793H15.7549V33.8047H49.0005L65.026 46.442L49.0005 59.0793Z" fill="white"/>
<path d="M49 33.8047H82.2456V59.0793H49V33.8047Z" fill="#E2E2EB"/>
<path d="M27.3452 44.324C27.298 43.8823 27.099 43.5383 26.7483 43.2922C26.401 43.046 25.9492 42.923 25.3928 42.923C25.0017 42.923 24.6662 42.982 24.3863 43.1C24.1064 43.218 23.8923 43.3782 23.744 43.5805C23.5956 43.7828 23.5197 44.0138 23.5164 44.2734C23.5164 44.4892 23.5652 44.6764 23.663 44.8348C23.7642 44.9933 23.9008 45.1282 24.0727 45.2395C24.2447 45.3474 24.4352 45.4384 24.6443 45.5126C24.8533 45.5868 25.0641 45.6492 25.2765 45.6997L26.2476 45.9425C26.6388 46.0336 27.0147 46.1566 27.3755 46.3117C27.7397 46.4669 28.0651 46.6624 28.3517 46.8985C28.6417 47.1345 28.871 47.4194 29.0396 47.7532C29.2082 48.0871 29.2925 48.4782 29.2925 48.9267C29.2925 49.5336 29.1374 50.0681 28.8271 50.53C28.5169 50.9886 28.0685 51.3477 27.4817 51.6074C26.8984 51.8636 26.192 51.9918 25.3625 51.9918C24.5566 51.9918 23.8569 51.867 23.2635 51.6175C22.6734 51.3679 22.2114 51.0038 21.8776 50.525C21.5472 50.0462 21.3684 49.4628 21.3415 48.7749H23.1876C23.2146 49.1357 23.3258 49.4358 23.5214 49.6752C23.717 49.9146 23.9716 50.0934 24.2852 50.2114C24.6021 50.3294 24.9562 50.3884 25.3473 50.3884C25.7553 50.3884 26.1127 50.3277 26.4196 50.2063C26.7298 50.0816 26.9726 49.9096 27.1479 49.6904C27.3233 49.4679 27.4126 49.2082 27.416 48.9115C27.4126 48.6417 27.3334 48.4192 27.1783 48.2439C27.0232 48.0651 26.8057 47.9168 26.5258 47.7988C26.2493 47.6774 25.9256 47.5695 25.5547 47.4751L24.3762 47.1716C23.5231 46.9524 22.8487 46.6203 22.353 46.1752C21.8607 45.7267 21.6146 45.1316 21.6146 44.3897C21.6146 43.7794 21.7798 43.245 22.1103 42.7864C22.4441 42.3278 22.8976 41.9721 23.4708 41.7192C24.0441 41.4629 24.6932 41.3348 25.4181 41.3348C26.1532 41.3348 26.7972 41.4629 27.3502 41.7192C27.9066 41.9721 28.3433 42.3244 28.6602 42.7763C28.9772 43.2247 29.1407 43.7407 29.1508 44.324H27.3452ZM32.8418 41.4764V51.835H30.9654V41.4764H32.8418ZM41.8133 44.7843C41.729 44.5111 41.6126 44.2667 41.4643 44.0509C41.3193 43.8317 41.1439 43.6446 40.9383 43.4894C40.7359 43.3343 40.5033 43.218 40.2403 43.1404C39.9773 43.0595 39.6906 43.0191 39.3804 43.0191C38.8241 43.0191 38.3284 43.159 37.8934 43.4389C37.4584 43.7187 37.1162 44.1301 36.8667 44.673C36.6205 45.2125 36.4974 45.87 36.4974 46.6456C36.4974 47.4279 36.6205 48.0904 36.8667 48.6333C37.1128 49.1762 37.4551 49.5893 37.8934 49.8725C38.3318 50.1524 38.8409 50.2923 39.4209 50.2923C39.9469 50.2923 40.4021 50.1911 40.7865 49.9888C41.1743 49.7865 41.4727 49.4999 41.6818 49.129C41.8908 48.7547 41.9954 48.3164 41.9954 47.8139L42.4202 47.8797H39.608V46.4129H43.8111V47.6571C43.8111 48.544 43.6223 49.3111 43.2447 49.9585C42.867 50.6059 42.3477 51.1049 41.6868 51.4556C41.0259 51.8029 40.2672 51.9766 39.4108 51.9766C38.4565 51.9766 37.6186 51.7625 36.897 51.3342C36.1788 50.9026 35.6174 50.2906 35.2127 49.4982C34.8115 48.7024 34.6108 47.7583 34.6108 46.6658C34.6108 45.8296 34.7289 45.0827 34.9649 44.4252C35.2043 43.7676 35.5381 43.2096 35.9664 42.751C36.3946 42.289 36.897 41.9384 37.4736 41.6989C38.0502 41.4562 38.6774 41.3348 39.3551 41.3348C39.9284 41.3348 40.4628 41.4191 40.9585 41.5877C41.4542 41.7529 41.8942 41.9889 42.2786 42.2958C42.6664 42.6026 42.985 42.9668 43.2345 43.3883C43.4841 43.8098 43.6476 44.2751 43.7252 44.7843H41.8133ZM54.1381 41.4764V51.835H52.469L47.5881 44.7792H47.5021V51.835H45.6257V41.4764H47.3049L52.1807 48.5372H52.2717V41.4764H54.1381ZM66.2454 41.4764H68.1219V48.2439C68.1219 48.9857 67.9465 49.6382 67.5959 50.2013C67.2486 50.7644 66.7596 51.2044 66.1291 51.5214C65.4985 51.835 64.7618 51.9918 63.9188 51.9918C63.0724 51.9918 62.334 51.835 61.7034 51.5214C61.0729 51.2044 60.5839 50.7644 60.2366 50.2013C59.8893 49.6382 59.7157 48.9857 59.7157 48.2439V41.4764H61.5921V48.0871C61.5921 48.5187 61.6866 48.9031 61.8754 49.2403C62.0676 49.5775 62.3373 49.8422 62.6847 50.0344C63.032 50.2232 63.4433 50.3176 63.9188 50.3176C64.3942 50.3176 64.8056 50.2232 65.1529 50.0344C65.5036 49.8422 65.7733 49.5775 65.9622 49.2403C66.151 48.9031 66.2454 48.5187 66.2454 48.0871V41.4764ZM70.1615 51.835V41.4764H74.0459C74.8417 41.4764 75.5094 41.6248 76.0489 41.9215C76.5917 42.2182 77.0014 42.6262 77.2779 43.1455C77.5578 43.6614 77.6977 44.2481 77.6977 44.9057C77.6977 45.5699 77.5578 46.16 77.2779 46.6759C76.9981 47.1918 76.585 47.5981 76.0387 47.8949C75.4925 48.1882 74.8198 48.3349 74.0206 48.3349H71.4462V46.7922H73.7678C74.2331 46.7922 74.6141 46.7113 74.9108 46.5495C75.2076 46.3876 75.4267 46.1651 75.5684 45.8818C75.7134 45.5986 75.7859 45.2732 75.7859 44.9057C75.7859 44.5381 75.7134 44.2144 75.5684 43.9345C75.4267 43.6547 75.2059 43.4372 74.9058 43.2821C74.6091 43.1236 74.2263 43.0443 73.7576 43.0443H72.038V51.835H70.1615Z" fill="#171717"/>
<path d="M56.6172 72.2882L50.7959 54.8242L68.2599 60.6455L62.5967 63.5635L68.0742 69.041L65.0126 72.1025L59.535 66.6251L56.6172 72.2882Z" fill="#454553"/>
</svg>
