<svg width="643" height="420" viewBox="0 0 643 420" fill="none" xmlns="http://www.w3.org/2000/svg">
<ellipse cx="506.319" cy="243.886" rx="335.432" ry="188.804" transform="rotate(-18.59 506.319 243.886)" fill="#EFEFEF"/>
<path d="M388 210H494H532M532 210L525 217M532 210L525 204" stroke="#7CCBB5" stroke-width="2"/>
<circle cx="577" cy="204" r="25" fill="white" fill-opacity="0.76"/>
<circle cx="309.04" cy="211.218" r="70.3091" stroke="#7CCBB5" stroke-width="3.2326"/>
<circle cx="309.061" cy="211.238" r="99.9585" stroke="#7CCBB5" stroke-width="2.2761"/>
<circle cx="577" cy="294" r="25" fill="white" fill-opacity="0.76"/>
<path d="M383 208.5H465C478.255 208.5 489 197.755 489 184.5V137C489 124.85 498.85 115 511 115H521M521 115L515.5 121.5M521 115L516 109" stroke="#7CCBB5" stroke-width="2"/>
<path d="M383 210H465C478.255 210 489 220.745 489 234V281.5C489 293.65 498.85 303.5 511 303.5H521M521 303.5L515.5 297M521 303.5L516 309.5" stroke="#7CCBB5" stroke-width="2"/>
<g filter="url(#filter0_d_1577_14315)">
<circle cx="576.823" cy="101" r="25" fill="white"/>
<g clip-path="url(#clip0_1577_14315)">
<path d="M585.912 92.6148C585.892 92.4719 585.767 92.3927 585.664 92.384C584.9 92.3267 584.137 92.2698 583.374 92.2134C583.374 92.2134 581.855 90.7058 581.689 90.539C581.522 90.3722 581.196 90.4229 581.07 90.4601C581.051 90.4656 580.738 90.5623 580.22 90.7226C579.713 89.2629 578.818 87.9215 577.243 87.9215C577.199 87.9215 577.154 87.9233 577.11 87.9259C576.662 87.3335 576.107 87.0762 575.628 87.0762C571.959 87.0762 570.206 91.6624 569.657 93.993C568.231 94.4348 567.218 94.7488 567.089 94.7894C566.293 95.039 566.268 95.0641 566.164 95.8139C566.085 96.3816 564.003 112.483 564.003 112.483L580.227 115.523L589.017 113.621C589.017 113.621 585.931 92.7578 585.912 92.6148ZM579.323 90.9999L577.951 91.4248C577.951 91.328 577.951 91.2328 577.951 91.1287C577.951 90.2216 577.826 89.4912 577.624 88.9121C578.435 89.014 578.975 89.9373 579.323 90.9999ZM576.617 89.092C576.843 89.6573 576.989 90.4686 576.989 91.5634C576.989 91.6194 576.989 91.6707 576.988 91.7225C576.095 91.999 575.125 92.2992 574.153 92.6004C574.699 90.4935 575.722 89.4759 576.617 89.092ZM575.527 88.0602C575.685 88.0602 575.845 88.114 575.997 88.219C574.822 88.7723 573.561 90.1658 573.029 92.9485L570.788 93.6425C571.411 91.5201 572.892 88.0602 575.527 88.0602Z" fill="#95BF46"/>
<path d="M585.664 92.3843C584.901 92.327 584.137 92.2701 583.374 92.2137C583.374 92.2137 581.856 90.7061 581.689 90.5393C581.627 90.4772 581.542 90.4453 581.454 90.4316L580.228 115.523L589.018 113.621C589.018 113.621 585.932 92.7581 585.912 92.6151C585.893 92.4722 585.767 92.3931 585.664 92.3843Z" fill="#5E8E3E"/>
<path d="M577.244 97.2412L576.16 100.465C576.16 100.465 575.21 99.9586 574.046 99.9586C572.339 99.9586 572.253 101.03 572.253 101.299C572.253 102.772 576.092 103.336 576.092 106.786C576.092 109.499 574.371 111.247 572.05 111.247C569.265 111.247 567.841 109.513 567.841 109.513L568.587 107.05C568.587 107.05 570.05 108.307 571.286 108.307C572.093 108.307 572.421 107.671 572.421 107.207C572.421 105.286 569.272 105.2 569.272 102.044C569.272 99.3872 571.179 96.8164 575.028 96.8164C576.511 96.8164 577.244 97.2412 577.244 97.2412Z" fill="white"/>
</g>
</g>
<path d="M237 209.5H155C141.745 209.5 131 198.755 131 185.5V138C131 125.85 121.15 116 109 116H99M99 116L104.5 122.5M99 116L104 110" stroke="#7CCBB5" stroke-width="2"/>
<path d="M237 210H155C141.745 210 131 220.745 131 234V281.5C131 293.65 121.15 303.5 109 303.5H99M99 303.5L104.5 297M99 303.5L104 309.5" stroke="#7CCBB5" stroke-width="2"/>
<g filter="url(#filter1_d_1577_14315)">
<circle cx="25" cy="25" r="25" transform="matrix(-1 0 0 1 66.1768 76)" fill="white" fill-opacity="0.76"/>
<g clip-path="url(#clip1_1577_14315)">
<path d="M47.375 89H34.625C31.5184 89 29 91.5184 29 94.625V107.375C29 110.482 31.5184 113 34.625 113H47.375C50.4816 113 53 110.482 53 107.375V94.625C53 91.5184 50.4816 89 47.375 89Z" fill="url(#paint0_radial_1577_14315)"/>
<path d="M47.375 89H34.625C31.5184 89 29 91.5184 29 94.625V107.375C29 110.482 31.5184 113 34.625 113H47.375C50.4816 113 53 110.482 53 107.375V94.625C53 91.5184 50.4816 89 47.375 89Z" fill="url(#paint1_radial_1577_14315)"/>
<path d="M41.0006 91.625C38.4545 91.625 38.1349 91.6362 37.135 91.6816C36.1369 91.7274 35.4557 91.8853 34.8596 92.1172C34.2429 92.3566 33.7199 92.677 33.1988 93.1982C32.6773 93.7194 32.3569 94.2424 32.1168 94.8588C31.8843 95.4551 31.7261 96.1366 31.6812 97.1342C31.6365 98.1342 31.6248 98.4539 31.6248 101C31.6248 103.546 31.636 103.865 31.6814 104.865C31.7273 105.863 31.8853 106.544 32.1169 107.14C32.3566 107.757 32.6769 108.28 33.1982 108.801C33.7191 109.322 34.2422 109.644 34.8584 109.883C35.4549 110.115 36.1363 110.273 37.1342 110.319C38.1342 110.364 38.4535 110.375 40.9995 110.375C43.5458 110.375 43.8644 110.364 44.8643 110.319C45.8624 110.273 46.5444 110.115 47.1409 109.883C47.7573 109.644 48.2796 109.322 48.8005 108.801C49.322 108.28 49.6423 107.757 49.8826 107.14C50.113 106.544 50.2713 105.863 50.3181 104.865C50.363 103.865 50.3748 103.546 50.3748 101C50.3748 98.4539 50.363 98.1344 50.3181 97.1344C50.2713 96.1363 50.113 95.4552 49.8826 94.8591C49.6423 94.2424 49.322 93.7194 48.8005 93.1982C48.2791 92.6768 47.7575 92.3564 47.1404 92.1173C46.5427 91.8853 45.8611 91.7273 44.863 91.6816C43.863 91.6362 43.5446 91.625 40.9977 91.625H41.0006ZM40.1596 93.3145C40.4092 93.3141 40.6878 93.3145 41.0006 93.3145C43.5038 93.3145 43.8004 93.3235 44.7889 93.3684C45.703 93.4102 46.1991 93.5629 46.5296 93.6913C46.9671 93.8611 47.279 94.0643 47.607 94.3925C47.9351 94.7206 48.1382 95.0331 48.3085 95.4706C48.4368 95.8006 48.5898 96.2968 48.6314 97.2108C48.6763 98.1991 48.686 98.4959 48.686 100.998C48.686 103.5 48.6763 103.797 48.6314 104.785C48.5896 105.699 48.4368 106.195 48.3085 106.525C48.1386 106.963 47.9351 107.274 47.607 107.602C47.2789 107.93 46.9673 108.134 46.5296 108.304C46.1995 108.432 45.703 108.585 44.7889 108.627C43.8006 108.671 43.5038 108.681 41.0006 108.681C38.4973 108.681 38.2006 108.671 37.2123 108.627C36.2983 108.584 35.8022 108.432 35.4714 108.303C35.034 108.133 34.7214 107.93 34.3933 107.602C34.0652 107.274 33.8621 106.962 33.6918 106.525C33.5634 106.194 33.4105 105.698 33.3689 104.784C33.324 103.796 33.315 103.499 33.315 100.996C33.315 98.492 33.324 98.1968 33.3689 97.2085C33.4107 96.2944 33.5634 95.7983 33.6918 95.4678C33.8617 95.0303 34.0652 94.7178 34.3934 94.3897C34.7216 94.0616 35.034 93.8584 35.4715 93.6882C35.802 93.5592 36.2983 93.4069 37.2123 93.3649C38.0772 93.3258 38.4123 93.3141 40.1596 93.3121V93.3145ZM46.005 94.8711C45.3839 94.8711 44.88 95.3745 44.88 95.9957C44.88 96.6168 45.3839 97.1207 46.005 97.1207C46.6261 97.1207 47.13 96.6168 47.13 95.9957C47.13 95.3746 46.6261 94.8707 46.005 94.8707V94.8711ZM41.0006 96.1856C38.3418 96.1856 36.1862 98.3413 36.1862 101C36.1862 103.659 38.3418 105.814 41.0006 105.814C43.6594 105.814 45.8144 103.659 45.8144 101C45.8144 98.3413 43.6593 96.1856 41.0004 96.1856H41.0006ZM41.0006 97.875C42.7264 97.875 44.1257 99.2741 44.1257 101C44.1257 102.726 42.7264 104.125 41.0006 104.125C39.2748 104.125 37.8756 102.726 37.8756 101C37.8756 99.2741 39.2747 97.875 41.0006 97.875Z" fill="white"/>
</g>
</g>
<circle cx="25" cy="25" r="25" transform="matrix(-1 0 0 1 66 269)" fill="white" fill-opacity="0.76"/>
<g clip-path="url(#clip2_1577_14315)">
<path d="M37.7093 282.823C35.2114 283.689 33.0572 285.334 31.5631 287.515C30.0691 289.697 29.3139 292.3 29.4086 294.942C29.5032 297.584 30.4426 300.126 32.0889 302.195C33.7352 304.264 36.0015 305.75 38.555 306.436C40.6251 306.97 42.794 306.994 44.8753 306.504C46.7607 306.081 48.5037 305.175 49.9339 303.876C51.4223 302.482 52.5027 300.709 53.0589 298.747C53.6634 296.613 53.771 294.37 53.3733 292.188H41.7483V297.01H48.4807C48.3462 297.779 48.0579 298.514 47.633 299.169C47.2081 299.824 46.6555 300.386 46.0081 300.823C45.186 301.367 44.2592 301.733 43.2874 301.897C42.3127 302.078 41.3129 302.078 40.3382 301.897C39.3502 301.693 38.4157 301.285 37.594 300.7C36.274 299.765 35.2828 298.438 34.762 296.907C34.2323 295.347 34.2323 293.656 34.762 292.096C35.1327 291.003 35.7456 290.007 36.555 289.184C37.4811 288.225 38.6537 287.539 39.9439 287.202C41.2342 286.865 42.5924 286.89 43.8694 287.274C44.867 287.58 45.7793 288.115 46.5335 288.837C47.2926 288.081 48.0504 287.324 48.8069 286.565C49.1975 286.157 49.6233 285.768 50.0081 285.35C48.8568 284.279 47.5055 283.445 46.0315 282.897C43.3473 281.922 40.4104 281.896 37.7093 282.823Z" fill="white"/>
<path d="M37.7092 282.822C40.4101 281.895 43.3471 281.92 46.0315 282.894C47.5057 283.446 48.8565 284.284 50.0061 285.359C49.6155 285.777 49.2034 286.168 48.8049 286.574C48.0471 287.33 47.29 288.084 46.5334 288.836C45.7792 288.114 44.867 287.579 43.8694 287.273C42.5928 286.888 41.2347 286.861 39.944 287.197C38.6534 287.532 37.4801 288.217 36.553 289.175C35.7437 289.999 35.1308 290.994 34.76 292.087L30.7112 288.953C32.1604 286.079 34.6697 283.88 37.7092 282.822Z" fill="#E33629"/>
<path d="M29.6365 292.059C29.8541 290.98 30.2154 289.936 30.7107 288.953L34.7595 292.096C34.2299 293.655 34.2299 295.346 34.7595 296.906C33.4106 297.948 32.0609 298.995 30.7107 300.047C29.4707 297.579 29.0926 294.767 29.6365 292.059Z" fill="#F8BD00"/>
<path d="M41.7482 292.186H53.3732C53.7708 294.367 53.6633 296.611 53.0587 298.744C52.5026 300.706 51.4222 302.479 49.9337 303.873C48.6271 302.854 47.3146 301.842 46.0079 300.822C46.6558 300.385 47.2087 299.822 47.6336 299.166C48.0584 298.51 48.3465 297.776 48.4806 297.006H41.7482C41.7462 295.4 41.7482 293.793 41.7482 292.186Z" fill="#587DBD"/>
<path d="M30.709 300.047C32.0592 299.005 33.4089 297.958 34.7578 296.906C35.2797 298.438 36.2723 299.765 37.5938 300.699C38.418 301.282 39.3546 301.686 40.3438 301.887C41.3185 302.068 42.3182 302.068 43.293 301.887C44.2648 301.722 45.1916 301.356 46.0137 300.812C47.3203 301.832 48.6328 302.844 49.9395 303.863C48.5096 305.164 46.7664 306.07 44.8809 306.494C42.7996 306.983 40.6307 306.96 38.5605 306.426C36.9232 305.989 35.3939 305.218 34.0684 304.162C32.6654 303.048 31.5194 301.644 30.709 300.047Z" fill="#319F43"/>
</g>
<g clip-path="url(#clip3_1577_14315)">
<path d="M565 203.875C565 208.738 567.924 212.916 572.108 214.752C572.075 213.923 572.102 212.928 572.315 212.025C572.543 211.061 573.843 205.554 573.843 205.554C573.843 205.554 573.464 204.796 573.464 203.676C573.464 201.916 574.484 200.601 575.754 200.601C576.834 200.601 577.356 201.413 577.356 202.384C577.356 203.47 576.663 205.094 576.307 206.599C576.01 207.858 576.939 208.886 578.182 208.886C580.432 208.886 581.947 205.996 581.947 202.572C581.947 199.969 580.194 198.021 577.006 198.021C573.403 198.021 571.159 200.708 571.159 203.708C571.159 204.743 571.464 205.473 571.942 206.038C572.162 206.297 572.192 206.401 572.113 206.699C572.056 206.918 571.925 207.444 571.871 207.652C571.792 207.953 571.548 208.061 571.276 207.95C569.617 207.272 568.844 205.455 568.844 203.413C568.844 200.039 571.689 195.994 577.332 195.994C581.865 195.994 584.85 199.275 584.85 202.797C584.85 207.456 582.26 210.936 578.442 210.936C577.16 210.936 575.954 210.243 575.541 209.456C575.541 209.456 574.851 212.192 574.705 212.72C574.454 213.636 573.961 214.551 573.51 215.264C574.603 215.587 575.736 215.751 576.876 215.751C583.433 215.751 588.751 210.434 588.751 203.875C588.751 197.317 583.433 192 576.876 192C570.317 192 565 197.317 565 203.875Z" fill="#CB1F27"/>
</g>
<g clip-path="url(#clip4_1577_14315)">
<path d="M591 294C591 286.268 584.732 280 577 280C569.268 280 563 286.268 563 294C563 300.988 568.12 306.78 574.812 307.83V298.047H571.258V294H574.812V290.916C574.812 287.407 576.903 285.469 580.101 285.469C581.632 285.469 583.234 285.742 583.234 285.742V289.187H581.469C579.73 289.187 579.188 290.267 579.188 291.374V294H583.07L582.45 298.047H579.188V307.83C585.88 306.78 591 300.988 591 294Z" fill="#1877F2"/>
<path d="M582.45 298.047L583.07 294H579.188V291.374C579.188 290.267 579.73 289.188 581.469 289.188H583.234V285.742C583.234 285.742 581.632 285.469 580.1 285.469C576.903 285.469 574.812 287.407 574.812 290.916V294H571.258V298.047H574.812V307.83C575.536 307.943 576.268 308 577 308C577.732 308 578.464 307.943 579.188 307.83V298.047H582.45Z" fill="white"/>
</g>
<defs>
<filter id="filter0_d_1577_14315" x="536.198" y="68.1875" width="81.25" height="81.25" filterUnits="userSpaceOnUse" color-interpolation-filters="sRGB">
<feFlood flood-opacity="0" result="BackgroundImageFix"/>
<feColorMatrix in="SourceAlpha" type="matrix" values="0 0 0 0 0 0 0 0 0 0 0 0 0 0 0 0 0 0 127 0" result="hardAlpha"/>
<feOffset dy="7.8125"/>
<feGaussianBlur stdDeviation="7.8125"/>
<feColorMatrix type="matrix" values="0 0 0 0 0.160784 0 0 0 0 0.160784 0 0 0 0 0.164706 0 0 0 0.07 0"/>
<feBlend mode="normal" in2="BackgroundImageFix" result="effect1_dropShadow_1577_14315"/>
<feBlend mode="normal" in="SourceGraphic" in2="effect1_dropShadow_1577_14315" result="shape"/>
</filter>
<filter id="filter1_d_1577_14315" x="0.551758" y="68.1875" width="81.25" height="81.25" filterUnits="userSpaceOnUse" color-interpolation-filters="sRGB">
<feFlood flood-opacity="0" result="BackgroundImageFix"/>
<feColorMatrix in="SourceAlpha" type="matrix" values="0 0 0 0 0 0 0 0 0 0 0 0 0 0 0 0 0 0 127 0" result="hardAlpha"/>
<feOffset dy="7.8125"/>
<feGaussianBlur stdDeviation="7.8125"/>
<feColorMatrix type="matrix" values="0 0 0 0 0.160784 0 0 0 0 0.160784 0 0 0 0 0.164706 0 0 0 0.07 0"/>
<feBlend mode="normal" in2="BackgroundImageFix" result="effect1_dropShadow_1577_14315"/>
<feBlend mode="normal" in="SourceGraphic" in2="effect1_dropShadow_1577_14315" result="shape"/>
</filter>
<radialGradient id="paint0_radial_1577_14315" cx="0" cy="0" r="1" gradientUnits="userSpaceOnUse" gradientTransform="translate(35.375 114.848) rotate(-90) scale(23.7858 22.1227)">
<stop stop-color="#FFDD55"/>
<stop offset="0.1" stop-color="#FFDD55"/>
<stop offset="0.5" stop-color="#FF543E"/>
<stop offset="1" stop-color="#C837AB"/>
</radialGradient>
<radialGradient id="paint1_radial_1577_14315" cx="0" cy="0" r="1" gradientUnits="userSpaceOnUse" gradientTransform="translate(24.9799 90.7288) rotate(78.681) scale(10.6324 43.827)">
<stop stop-color="#3771C8"/>
<stop offset="0.128" stop-color="#3771C8"/>
<stop offset="1" stop-color="#6600FF" stop-opacity="0"/>
</radialGradient>
<clipPath id="clip0_1577_14315">
<rect width="25.0685" height="28.5938" fill="white" transform="translate(564 87)"/>
</clipPath>
<clipPath id="clip1_1577_14315">
<rect width="24" height="24" fill="white" transform="translate(29 89)"/>
</clipPath>
<clipPath id="clip2_1577_14315">
<rect width="25" height="25" fill="white" transform="translate(29 282)"/>
</clipPath>
<clipPath id="clip3_1577_14315">
<rect width="23.7505" height="23.7505" fill="white" transform="translate(565 192)"/>
</clipPath>
<clipPath id="clip4_1577_14315">
<rect width="28" height="28" fill="white" transform="translate(563 280)"/>
</clipPath>
</defs>
</svg>
