<svg width="374" height="152" viewBox="0 0 374 152" fill="none" xmlns="http://www.w3.org/2000/svg">
<path d="M282.749 85.9489H298.758H321.713M321.713 85.9489L318.693 88.9692M321.713 85.9489L318.693 82.6262" stroke="#7CCBB5" stroke-width="1.20819" stroke-linecap="round"/>
<circle cx="348.898" cy="82.3241" r="15.1024" fill="white" fill-opacity="0.76"/>
<circle cx="187.024" cy="86.6847" r="42.4734" stroke="#7CCBB5" stroke-width="1.9528"/>
<circle cx="187.037" cy="86.6965" r="60.3845" stroke="#7CCBB5" stroke-width="1.37498"/>
<circle cx="348.898" cy="136.693" r="15.1024" fill="white" fill-opacity="0.76"/>
<path d="M232.308 86.2506H281.843C289.851 86.2506 296.342 79.7595 296.342 71.7523V43.0577C296.342 35.7178 302.292 29.7676 309.632 29.7676H315.673M232.308 86.2506L236.536 83.2301M232.308 86.2506L236.536 89.2711M315.673 29.7676L312.048 33.0902M315.673 29.7676L312.048 26.1431" stroke="#7CCBB5" stroke-width="1.20819" stroke-linecap="round"/>
<path d="M232.308 85.9482H281.843C289.851 85.9482 296.342 92.4393 296.342 100.446V129.141C296.342 136.481 302.292 142.431 309.632 142.431H315.673M232.308 85.9482L236.536 88.9686M232.308 85.9482L236.536 82.9277M315.673 142.431L312.048 139.109M315.673 142.431L312.048 146.056" stroke="#7CCBB5" stroke-width="1.20819" stroke-linecap="round"/>
<g filter="url(#filter0_d_1871_18904)">
<circle cx="348.791" cy="20.1024" r="15.1024" fill="white"/>
<g clip-path="url(#clip0_1871_18904)">
<path d="M354.282 15.0368C354.27 14.9504 354.194 14.9026 354.131 14.8974C353.67 14.8627 353.209 14.8284 352.748 14.7943C352.748 14.7943 351.831 13.8836 351.73 13.7828C351.63 13.682 351.433 13.7127 351.356 13.7351C351.345 13.7385 351.156 13.7968 350.843 13.8937C350.537 13.0119 349.996 12.2016 349.044 12.2016C349.018 12.2016 348.991 12.2027 348.964 12.2042C348.694 11.8464 348.358 11.6909 348.069 11.6909C345.853 11.6909 344.794 14.4615 344.462 15.8694C343.601 16.1362 342.989 16.3259 342.911 16.3505C342.43 16.5013 342.415 16.5164 342.352 16.9693C342.304 17.3123 341.046 27.0391 341.046 27.0391L350.847 28.8754L356.157 27.7266C356.157 27.7266 354.293 15.1232 354.282 15.0368ZM350.301 14.0612L349.472 14.3179C349.472 14.2594 349.473 14.2019 349.473 14.1391C349.473 13.591 349.397 13.1498 349.275 12.8C349.765 12.8615 350.091 13.4193 350.301 14.0612ZM348.666 12.9087C348.803 13.2502 348.891 13.7403 348.891 14.4017C348.891 14.4355 348.891 14.4664 348.891 14.4977C348.351 14.6648 347.765 14.8461 347.178 15.0281C347.508 13.7553 348.126 13.1406 348.666 12.9087ZM348.008 12.2854C348.104 12.2854 348.2 12.3178 348.292 12.3813C347.582 12.7155 346.821 13.5573 346.499 15.2383L345.145 15.6576C345.522 14.3754 346.416 12.2854 348.008 12.2854Z" fill="#95BF46"/>
<path d="M354.132 14.8974C353.67 14.8627 353.209 14.8284 352.748 14.7943C352.748 14.7943 351.831 13.8836 351.73 13.7828C351.693 13.7453 351.642 13.7261 351.589 13.7178L350.848 28.8753L356.158 27.7266C356.158 27.7266 354.293 15.1232 354.282 15.0368C354.27 14.9505 354.194 14.9027 354.132 14.8974Z" fill="#5E8E3E"/>
<path d="M349.045 17.8313L348.391 19.7791C348.391 19.7791 347.817 19.4729 347.114 19.4729C346.083 19.4729 346.031 20.1199 346.031 20.2829C346.031 21.1725 348.35 21.5133 348.35 23.597C348.35 25.2364 347.31 26.292 345.908 26.292C344.226 26.292 343.365 25.245 343.365 25.245L343.816 23.7566C343.816 23.7566 344.7 24.5159 345.446 24.5159C345.934 24.5159 346.132 24.132 346.132 23.8514C346.132 22.6911 344.23 22.6393 344.23 20.7325C344.23 19.1277 345.382 17.5747 347.707 17.5747C348.603 17.5747 349.045 17.8313 349.045 17.8313Z" fill="white"/>
</g>
</g>
<path d="M143.505 85.6466H93.9695C85.9623 85.6466 79.4712 79.1555 79.4712 71.1483V42.4537C79.4712 35.1138 73.5211 29.1636 66.1811 29.1636H60.1402M143.505 85.6466L139.277 82.6261M143.505 85.6466L139.277 88.6671M60.1402 29.1636L63.7648 32.4862M60.1402 29.1636L63.7648 25.5391" stroke="#7CCBB5" stroke-width="1.20819" stroke-linecap="round"/>
<path d="M143.505 85.9486H93.9695C85.9623 85.9486 79.4712 92.4397 79.4712 100.447V129.141C79.4712 136.481 73.5211 142.432 66.1811 142.432H60.1402M143.505 85.9486L139.277 88.9691M143.505 85.9486L139.277 82.9282M60.1402 142.432L63.7648 139.109M60.1402 142.432L63.7648 146.056" stroke="#7CCBB5" stroke-width="1.20819" stroke-linecap="round"/>
<g filter="url(#filter1_d_1871_18904)">
<circle cx="15.1024" cy="15.1024" r="15.1024" transform="matrix(-1 0 0 1 40.312 5)" fill="white" fill-opacity="0.76"/>
<g clip-path="url(#clip1_1871_18904)">
<path d="M28.9538 12.853H21.2516C19.3749 12.853 17.8535 14.3744 17.8535 16.2511V23.9533C17.8535 25.83 19.3749 27.3513 21.2516 27.3513H28.9538C30.8305 27.3513 32.3518 25.83 32.3518 23.9533V16.2511C32.3518 14.3744 30.8305 12.853 28.9538 12.853Z" fill="url(#paint0_radial_1871_18904)"/>
<path d="M28.9538 12.853H21.2516C19.3749 12.853 17.8535 14.3744 17.8535 16.2511V23.9533C17.8535 25.83 19.3749 27.3513 21.2516 27.3513H28.9538C30.8305 27.3513 32.3518 25.83 32.3518 23.9533V16.2511C32.3518 14.3744 30.8305 12.853 28.9538 12.853Z" fill="url(#paint1_radial_1871_18904)"/>
<path d="M25.1034 14.439C23.5653 14.439 23.3722 14.4457 22.7682 14.4732C22.1652 14.5008 21.7537 14.5962 21.3936 14.7363C21.0211 14.8809 20.7051 15.0745 20.3903 15.3893C20.0753 15.7042 19.8818 16.0201 19.7367 16.3925C19.5962 16.7527 19.5007 17.1644 19.4735 17.7671C19.4465 18.3712 19.4395 18.5643 19.4395 20.1024C19.4395 21.6405 19.4462 21.833 19.4737 22.437C19.5014 23.04 19.5968 23.4515 19.7368 23.8116C19.8815 24.1841 20.0751 24.5001 20.3899 24.8149C20.7047 25.1299 21.0206 25.3239 21.3929 25.4685C21.7532 25.6086 22.1648 25.704 22.7677 25.7317C23.3718 25.7591 23.5647 25.7659 25.1027 25.7659C26.6409 25.7659 26.8334 25.7591 27.4374 25.7317C28.0403 25.704 28.4524 25.6086 28.8127 25.4685C29.1851 25.3239 29.5006 25.1299 29.8152 24.8149C30.1303 24.5001 30.3238 24.1841 30.4689 23.8118C30.6081 23.4515 30.7037 23.0399 30.732 22.4372C30.7592 21.8331 30.7662 21.6405 30.7662 20.1024C30.7662 18.5643 30.7592 18.3713 30.732 17.7672C30.7037 17.1642 30.6081 16.7527 30.4689 16.3927C30.3238 16.0201 30.1303 15.7042 29.8152 15.3893C29.5002 15.0743 29.1852 14.8808 28.8124 14.7363C28.4513 14.5962 28.0395 14.5008 27.4366 14.4732C26.8325 14.4457 26.6402 14.439 25.1016 14.439H25.1034ZM24.5953 15.4596C24.7461 15.4593 24.9144 15.4596 25.1034 15.4596C26.6155 15.4596 26.7947 15.465 27.3919 15.4921C27.9441 15.5174 28.2438 15.6096 28.4434 15.6872C28.7077 15.7898 28.8961 15.9125 29.0942 16.1108C29.2925 16.309 29.4151 16.4978 29.518 16.7621C29.5956 16.9614 29.6879 17.2611 29.7131 17.8133C29.7402 18.4104 29.7461 18.5897 29.7461 20.1011C29.7461 21.6126 29.7402 21.7919 29.7131 22.3889C29.6878 22.9411 29.5956 23.2408 29.518 23.4402C29.4154 23.7045 29.2925 23.8927 29.0942 24.0908C28.896 24.289 28.7078 24.4117 28.4434 24.5144C28.244 24.5922 27.9441 24.6843 27.3919 24.7095C26.7948 24.7367 26.6155 24.7426 25.1034 24.7426C23.5911 24.7426 23.4119 24.7367 22.8149 24.7095C22.2627 24.684 21.963 24.5918 21.7632 24.5143C21.4989 24.4116 21.3101 24.2889 21.1119 24.0907C20.9137 23.8925 20.791 23.7042 20.6881 23.4397C20.6106 23.2403 20.5182 22.9406 20.4931 22.3884C20.4659 21.7914 20.4605 21.6121 20.4605 20.0997C20.4605 18.5873 20.4659 18.4089 20.4931 17.8119C20.5183 17.2597 20.6106 16.96 20.6881 16.7604C20.7908 16.4961 20.9137 16.3073 21.112 16.1091C21.3102 15.9109 21.4989 15.7882 21.7633 15.6853C21.9629 15.6074 22.2627 15.5154 22.8149 15.49C23.3373 15.4664 23.5398 15.4593 24.5953 15.4581V15.4596ZM28.1265 16.3999C27.7513 16.3999 27.4469 16.704 27.4469 17.0793C27.4469 17.4545 27.7513 17.7589 28.1265 17.7589C28.5017 17.7589 28.8061 17.4545 28.8061 17.0793C28.8061 16.7041 28.5017 16.3997 28.1265 16.3997V16.3999ZM25.1034 17.194C23.4972 17.194 22.195 18.4962 22.195 20.1024C22.195 21.7086 23.4972 23.0102 25.1034 23.0102C26.7096 23.0102 28.0113 21.7086 28.0113 20.1024C28.0113 18.4963 26.7094 17.194 25.1032 17.194H25.1034ZM25.1034 18.2146C26.1459 18.2146 26.9912 19.0597 26.9912 20.1024C26.9912 21.145 26.1459 21.9903 25.1034 21.9903C24.0608 21.9903 23.2156 21.145 23.2156 20.1024C23.2156 19.0597 24.0607 18.2146 25.1034 18.2146Z" fill="white"/>
</g>
</g>
<circle cx="15.1024" cy="15.1024" r="15.1024" transform="matrix(-1 0 0 1 40.2051 121.59)" fill="white" fill-opacity="0.76"/>
<g clip-path="url(#clip2_1871_18904)">
<path d="M23.1149 129.94C21.6059 130.464 20.3046 131.457 19.4021 132.775C18.4995 134.093 18.0433 135.665 18.1005 137.261C18.1577 138.858 18.7252 140.393 19.7197 141.643C20.7142 142.893 22.0832 143.791 23.6258 144.205C24.8764 144.528 26.1866 144.542 27.4439 144.246C28.5828 143.99 29.6358 143.443 30.4997 142.658C31.3989 141.816 32.0516 140.745 32.3875 139.56C32.7527 138.271 32.8177 136.916 32.5775 135.598H25.5549V138.511H29.6219C29.5406 138.976 29.3664 139.419 29.1098 139.815C28.8531 140.21 28.5193 140.55 28.1282 140.814C27.6316 141.143 27.0717 141.364 26.4846 141.463C25.8958 141.572 25.2918 141.572 24.703 141.463C24.1062 141.34 23.5417 141.093 23.0453 140.74C22.2479 140.175 21.6491 139.373 21.3345 138.448C21.0145 137.506 21.0145 136.485 21.3345 135.542C21.5584 134.882 21.9287 134.281 22.4176 133.783C22.9771 133.204 23.6854 132.789 24.4649 132.586C25.2443 132.382 26.0648 132.397 26.8362 132.629C27.4389 132.814 27.99 133.137 28.4456 133.573C28.9042 133.117 29.3619 132.66 29.8189 132.201C30.0549 131.954 30.3121 131.72 30.5446 131.467C29.8491 130.82 29.0328 130.316 28.1423 129.985C26.5209 129.396 24.7466 129.381 23.1149 129.94Z" fill="white"/>
<path d="M23.1147 129.94C24.7463 129.38 26.5205 129.396 28.1421 129.984C29.0327 130.317 29.8487 130.823 30.5432 131.473C30.3072 131.726 30.0583 131.962 29.8176 132.207C29.3598 132.664 28.9024 133.119 28.4454 133.573C27.9898 133.138 27.4387 132.814 26.836 132.629C26.0648 132.396 25.2444 132.381 24.4647 132.583C23.6851 132.786 22.9763 133.2 22.4162 133.779C21.9273 134.276 21.5571 134.877 21.3331 135.538L18.8872 133.644C19.7627 131.908 21.2785 130.58 23.1147 129.94Z" fill="#E33629"/>
<path d="M18.2386 135.52C18.37 134.869 18.5883 134.238 18.8875 133.644L21.3334 135.542C21.0134 136.485 21.0134 137.506 21.3334 138.448C20.5185 139.078 19.7032 139.71 18.8875 140.346C18.1385 138.855 17.91 137.156 18.2386 135.52Z" fill="#F8BD00"/>
<path d="M25.5552 135.597H32.5778C32.818 136.915 32.7531 138.27 32.3879 139.559C32.0519 140.744 31.3992 141.815 30.5001 142.657C29.7107 142.041 28.9179 141.43 28.1285 140.814C28.5199 140.55 28.8539 140.21 29.1105 139.814C29.3672 139.418 29.5413 138.974 29.6222 138.509H25.5552C25.554 137.539 25.5552 136.568 25.5552 135.597Z" fill="#587DBD"/>
<path d="M18.8862 140.345C19.7019 139.716 20.5172 139.084 21.3321 138.448C21.6474 139.373 22.247 140.175 23.0453 140.74C23.5432 141.091 24.109 141.336 24.7066 141.457C25.2954 141.566 25.8993 141.566 26.4882 141.457C27.0753 141.358 27.6351 141.137 28.1317 140.808C28.9211 141.424 29.7139 142.035 30.5033 142.651C29.6395 143.436 28.5865 143.984 27.4474 144.24C26.1901 144.536 24.8799 144.522 23.6293 144.199C22.6402 143.935 21.7164 143.469 20.9156 142.831C20.0681 142.159 19.3758 141.311 18.8862 140.345Z" fill="#319F43"/>
</g>
<g clip-path="url(#clip3_1871_18904)">
<path d="M341.649 82.2486C341.649 85.1862 343.415 87.7098 345.943 88.8193C345.923 88.3183 345.939 87.717 346.068 87.1719C346.206 86.5896 346.991 83.2629 346.991 83.2629C346.991 83.2629 346.762 82.8048 346.762 82.1279C346.762 81.0648 347.378 80.2708 348.145 80.2708C348.798 80.2708 349.113 80.7609 349.113 81.3478C349.113 82.0037 348.695 82.9849 348.48 83.8937C348.3 84.6547 348.861 85.2754 349.612 85.2754C350.971 85.2754 351.887 83.5296 351.887 81.4612C351.887 79.8889 350.828 78.7121 348.901 78.7121C346.725 78.7121 345.37 80.3349 345.37 82.1477C345.37 82.7727 345.554 83.2134 345.843 83.5547C345.975 83.7115 345.994 83.7745 345.946 83.9546C345.911 84.0865 345.832 84.4043 345.8 84.5303C345.752 84.712 345.605 84.7769 345.44 84.7098C344.438 84.3006 343.971 83.203 343.971 81.9691C343.971 79.9312 345.69 77.4877 349.098 77.4877C351.837 77.4877 353.64 79.4697 353.64 81.5972C353.64 84.4114 352.075 86.5138 349.769 86.5138C348.995 86.5138 348.266 86.0951 348.017 85.6196C348.017 85.6196 347.6 87.2725 347.512 87.5917C347.36 88.1448 347.062 88.6976 346.79 89.1285C347.45 89.3237 348.135 89.4227 348.823 89.4227C352.784 89.4227 355.997 86.2108 355.997 82.2486C355.997 78.2866 352.784 75.0747 348.823 75.0747C344.861 75.0747 341.649 78.2866 341.649 82.2486Z" fill="#CB1F27"/>
</g>
<g clip-path="url(#clip4_1871_18904)">
<path d="M357.355 136.693C357.355 132.022 353.569 128.236 348.898 128.236C344.227 128.236 340.44 132.022 340.44 136.693C340.44 140.914 343.533 144.413 347.576 145.048V139.138H345.429V136.693H347.576V134.83C347.576 132.71 348.839 131.539 350.771 131.539C351.696 131.539 352.664 131.705 352.664 131.705V133.786H351.598C350.547 133.786 350.219 134.438 350.219 135.107V136.693H352.565L352.19 139.138H350.219V145.048C354.262 144.413 357.355 140.915 357.355 136.693Z" fill="#1877F2"/>
<path d="M352.19 139.137L352.565 136.693H350.219V135.106C350.219 134.437 350.547 133.786 351.597 133.786H352.664V131.704C352.664 131.704 351.696 131.539 350.771 131.539C348.839 131.539 347.576 132.71 347.576 134.829V136.693H345.429V139.137H347.576V145.047C348.013 145.116 348.455 145.15 348.898 145.15C349.34 145.15 349.782 145.116 350.219 145.047V139.137H352.19Z" fill="white"/>
</g>
<path d="M163.398 79.0981L168.011 92.3037H165.804L164.375 88.0888H160.214L158.767 92.3037H156.994L161.625 79.0981H163.398ZM162.313 81.7031L160.703 86.6235H163.887L162.313 81.7031ZM171.97 80.7262C171.886 81.1362 171.813 81.5644 171.753 82.0106C171.693 82.4568 171.651 82.891 171.627 83.3131H173.906L173.598 84.5793H171.627V90.0063C171.627 90.1872 171.645 90.3741 171.681 90.5671C171.729 90.748 171.813 90.8927 171.934 91.0012C172.067 91.1098 172.26 91.1641 172.513 91.1641C172.706 91.1641 172.899 91.146 173.092 91.1098C173.285 91.0736 173.472 91.0314 173.653 90.9832L173.906 92.1409C173.604 92.2374 173.291 92.3218 172.965 92.3942C172.652 92.4665 172.32 92.5027 171.97 92.5027C171.198 92.5027 170.65 92.3097 170.324 91.9238C169.998 91.5258 169.836 90.947 169.836 90.1872V84.5793H168.425V83.5482C168.798 83.5362 169.112 83.4397 169.365 83.2588C169.619 83.0779 169.83 82.8487 169.998 82.5714C170.179 82.2819 170.324 81.9804 170.433 81.6669C170.541 81.3413 170.626 81.0277 170.686 80.7262H171.97ZM177.888 80.7262C177.804 81.1362 177.732 81.5644 177.671 82.0106C177.611 82.4568 177.569 82.891 177.545 83.3131H179.824L179.516 84.5793H177.545V90.0063C177.545 90.1872 177.563 90.3741 177.599 90.5671C177.647 90.748 177.732 90.8927 177.852 91.0012C177.985 91.1098 178.178 91.1641 178.431 91.1641C178.624 91.1641 178.817 91.146 179.01 91.1098C179.203 91.0736 179.39 91.0314 179.571 90.9832L179.824 92.1409C179.522 92.2374 179.209 92.3218 178.883 92.3942C178.57 92.4665 178.238 92.5027 177.888 92.5027C177.116 92.5027 176.568 92.3097 176.242 91.9238C175.917 91.5258 175.754 90.947 175.754 90.1872V84.5793H174.343V83.5482C174.717 83.5362 175.03 83.4397 175.283 83.2588C175.537 83.0779 175.748 82.8487 175.917 82.5714C176.097 82.2819 176.242 81.9804 176.351 81.6669C176.459 81.3413 176.544 81.0277 176.604 80.7262H177.888ZM183.517 80.1835C183.517 80.5212 183.402 80.8106 183.173 81.0518C182.944 81.293 182.655 81.4136 182.305 81.4136C181.967 81.4136 181.678 81.293 181.437 81.0518C181.207 80.8106 181.093 80.5212 181.093 80.1835C181.093 79.8458 181.207 79.5624 181.437 79.3333C181.678 79.0921 181.967 78.9715 182.305 78.9715C182.643 78.9715 182.926 79.0921 183.155 79.3333C183.396 79.5624 183.517 79.8458 183.517 80.1835ZM183.209 83.3131V92.3037H181.419V84.3442L181.201 83.3131H183.209ZM187.279 83.1502C187.52 83.705 187.665 84.2959 187.713 84.9231C188.015 84.4165 188.431 83.9944 188.962 83.6568C189.504 83.3191 190.071 83.1502 190.662 83.1502L190.3 84.9773C189.745 84.9773 189.263 85.122 188.853 85.4115C188.443 85.7009 188.069 86.0929 187.731 86.5873V92.3037H185.959V85.7733C185.959 85.5321 185.941 85.2607 185.904 84.9592C185.868 84.6577 185.808 84.3623 185.723 84.0728C185.639 83.7834 185.524 83.5362 185.38 83.3311L187.279 83.1502ZM195.668 83.0779C196.44 83.0779 197.079 83.2407 197.585 83.5663C198.104 83.8919 198.484 84.3261 198.725 84.8688C198.978 85.4115 199.105 86.0205 199.105 86.6959C199.105 86.8768 199.093 87.0637 199.069 87.2566C199.057 87.4496 199.033 87.6426 198.996 87.8355H193.371C193.371 88.9088 193.612 89.735 194.094 90.3138C194.577 90.8927 195.222 91.1821 196.03 91.1821C196.379 91.1821 196.747 91.1279 197.133 91.0193C197.519 90.8987 197.923 90.7239 198.345 90.4947L198.924 91.5258C198.502 91.8635 198.008 92.1168 197.441 92.2856C196.874 92.4424 196.325 92.5208 195.795 92.5208C195.095 92.5208 194.474 92.4002 193.931 92.159C193.389 91.9178 192.936 91.5861 192.575 91.1641C192.213 90.7299 191.935 90.2354 191.742 89.6807C191.562 89.1139 191.471 88.5169 191.471 87.8898C191.471 87.2747 191.562 86.6838 191.742 86.117C191.923 85.5381 192.189 85.0195 192.538 84.5613C192.9 84.103 193.34 83.7412 193.859 83.4759C194.378 83.2105 194.981 83.0779 195.668 83.0779ZM195.541 84.3623C195.143 84.3623 194.794 84.4768 194.492 84.706C194.203 84.9231 193.968 85.2065 193.787 85.5562C193.618 85.8939 193.509 86.2376 193.461 86.5873H197.242C197.278 86.1532 197.23 85.7672 197.097 85.4296C196.976 85.0919 196.783 84.8326 196.518 84.6517C196.253 84.4587 195.927 84.3623 195.541 84.3623ZM202.925 78.465V92.3037H201.116V79.478L200.898 78.465H202.925ZM207.465 78.465V92.3037H205.656V79.478L205.439 78.465H207.465ZM210.883 83.3131C211.149 84.0969 211.42 84.8808 211.697 85.6647C211.987 86.4366 212.264 87.2325 212.529 88.0526C212.626 88.3662 212.722 88.6978 212.819 89.0475C212.915 89.3852 213.012 89.7169 213.108 90.0425C213.193 89.7169 213.283 89.3852 213.38 89.0475C213.476 88.6978 213.579 88.3662 213.687 88.0526C213.952 87.2325 214.224 86.4366 214.501 85.6647C214.779 84.8808 215.05 84.0969 215.315 83.3131H216.979L213.778 92.3399C213.645 92.7499 213.47 93.1841 213.253 93.6424C213.036 94.1006 212.777 94.5227 212.475 94.9086C212.186 95.3066 211.842 95.6322 211.444 95.8855C211.058 96.1388 210.618 96.2654 210.123 96.2654H209.436V94.9086C209.496 94.9207 209.551 94.9267 209.599 94.9267C209.647 94.9267 209.701 94.9267 209.762 94.9267C210.244 94.9267 210.642 94.782 210.956 94.4926C211.269 94.2031 211.528 93.8534 211.733 93.4434C211.938 93.0333 212.101 92.6354 212.222 92.2494L208.948 83.3131H210.883Z" fill="black"/>
<defs>
<filter id="filter0_d_1871_18904" x="324.25" y="0.280503" width="49.0826" height="49.0826" filterUnits="userSpaceOnUse" color-interpolation-filters="sRGB">
<feFlood flood-opacity="0" result="BackgroundImageFix"/>
<feColorMatrix in="SourceAlpha" type="matrix" values="0 0 0 0 0 0 0 0 0 0 0 0 0 0 0 0 0 0 127 0" result="hardAlpha"/>
<feOffset dy="4.7195"/>
<feGaussianBlur stdDeviation="4.7195"/>
<feColorMatrix type="matrix" values="0 0 0 0 0.160784 0 0 0 0 0.160784 0 0 0 0 0.164706 0 0 0 0.07 0"/>
<feBlend mode="normal" in2="BackgroundImageFix" result="effect1_dropShadow_1871_18904"/>
<feBlend mode="normal" in="SourceGraphic" in2="effect1_dropShadow_1871_18904" result="shape"/>
</filter>
<filter id="filter1_d_1871_18904" x="0.668428" y="0.280503" width="49.0826" height="49.0826" filterUnits="userSpaceOnUse" color-interpolation-filters="sRGB">
<feFlood flood-opacity="0" result="BackgroundImageFix"/>
<feColorMatrix in="SourceAlpha" type="matrix" values="0 0 0 0 0 0 0 0 0 0 0 0 0 0 0 0 0 0 127 0" result="hardAlpha"/>
<feOffset dy="4.7195"/>
<feGaussianBlur stdDeviation="4.7195"/>
<feColorMatrix type="matrix" values="0 0 0 0 0.160784 0 0 0 0 0.160784 0 0 0 0 0.164706 0 0 0 0.07 0"/>
<feBlend mode="normal" in2="BackgroundImageFix" result="effect1_dropShadow_1871_18904"/>
<feBlend mode="normal" in="SourceGraphic" in2="effect1_dropShadow_1871_18904" result="shape"/>
</filter>
<radialGradient id="paint0_radial_1871_18904" cx="0" cy="0" r="1" gradientUnits="userSpaceOnUse" gradientTransform="translate(21.7046 28.468) rotate(-90) scale(14.3689 13.3642)">
<stop stop-color="#FFDD55"/>
<stop offset="0.1" stop-color="#FFDD55"/>
<stop offset="0.5" stop-color="#FF543E"/>
<stop offset="1" stop-color="#C837AB"/>
</radialGradient>
<radialGradient id="paint1_radial_1871_18904" cx="0" cy="0" r="1" gradientUnits="userSpaceOnUse" gradientTransform="translate(15.425 13.8974) rotate(78.681) scale(6.42297 26.4757)">
<stop stop-color="#3771C8"/>
<stop offset="0.128" stop-color="#3771C8"/>
<stop offset="1" stop-color="#6600FF" stop-opacity="0"/>
</radialGradient>
<clipPath id="clip0_1871_18904">
<rect width="15.1438" height="17.2734" fill="white" transform="translate(341.045 11.645)"/>
</clipPath>
<clipPath id="clip1_1871_18904">
<rect width="14.4983" height="14.4983" fill="white" transform="translate(17.8535 12.853)"/>
</clipPath>
<clipPath id="clip2_1871_18904">
<rect width="15.1024" height="15.1024" fill="white" transform="translate(17.8535 129.443)"/>
</clipPath>
<clipPath id="clip3_1871_18904">
<rect width="14.3476" height="14.3476" fill="white" transform="translate(341.649 75.0747)"/>
</clipPath>
<clipPath id="clip4_1871_18904">
<rect width="16.9147" height="16.9147" fill="white" transform="translate(340.44 128.236)"/>
</clipPath>
</defs>
</svg>
