<svg width="21" height="21" viewBox="0 0 21 21" fill="none" xmlns="http://www.w3.org/2000/svg">
<path d="M10.3048 5.69947C10.0886 5.69945 9.87785 5.76646 9.70141 5.89126C9.52497 6.01606 9.39157 6.19251 9.31961 6.39629C9.27013 6.5225 9.17352 6.62453 9.0502 6.68083C8.92688 6.73712 8.7865 6.74326 8.65873 6.69796C8.53096 6.65266 8.4258 6.55946 8.36549 6.43805C8.30517 6.31664 8.29442 6.17654 8.3355 6.04735C8.44176 5.74721 8.61521 5.47532 8.84261 5.25246C9.07 5.02959 9.34533 4.86164 9.64755 4.76144C9.94977 4.66124 10.2709 4.63143 10.5864 4.67429C10.9019 4.71716 11.2034 4.83156 11.468 5.00876C11.7325 5.18597 11.953 5.42128 12.1127 5.69674C12.2724 5.9722 12.367 6.2805 12.3894 6.59812C12.4117 6.91573 12.3611 7.23425 12.2416 7.52934C12.122 7.82444 11.9366 8.0883 11.6994 8.30078L11.6566 8.33943C11.4268 8.54524 11.2189 8.73015 11.0611 8.93074C10.894 9.13759 10.8282 9.30578 10.8282 9.45622C10.8282 9.68501 10.9535 9.895 11.1552 10.0036L16.7401 13.0124C17.0664 13.1887 17.3245 13.4688 17.4737 13.8084C17.6229 14.1479 17.6547 14.5275 17.5639 14.8871C17.4732 15.2467 17.2652 15.5658 16.9727 15.7939C16.6803 16.022 16.3202 16.146 15.9493 16.1465H4.65814C4.28698 16.1465 3.92643 16.0226 3.6337 15.7944C3.34096 15.5662 3.13279 15.2468 3.04221 14.8869C2.95162 14.5269 2.98381 14.147 3.13366 13.8075C3.2835 13.4679 3.54244 13.1881 3.86939 13.0124L9.85085 9.75551C9.9723 9.69478 10.1126 9.68373 10.2421 9.7247C10.3715 9.76567 10.48 9.85545 10.5443 9.975C10.6087 10.0945 10.624 10.2345 10.587 10.3651C10.55 10.4958 10.4636 10.6068 10.346 10.6748L4.36353 13.9317C4.24106 13.997 4.14397 14.1015 4.08774 14.2284C4.03151 14.3553 4.01937 14.4974 4.05326 14.632C4.08715 14.7666 4.16512 14.886 4.27474 14.9711C4.38437 15.0563 4.51934 15.1023 4.65814 15.1018H15.9514C16.0897 15.1013 16.2239 15.0548 16.3329 14.9696C16.4419 14.8844 16.5194 14.7653 16.5531 14.6312C16.5869 14.497 16.575 14.3555 16.5194 14.2288C16.4638 14.1022 16.3676 13.9976 16.246 13.9317L10.66 10.923C10.3952 10.7801 10.174 10.5684 10.0195 10.3103C9.86508 10.0521 9.78316 9.75705 9.78241 9.45622C9.78241 8.97357 10.0039 8.57971 10.2421 8.27988C10.4594 8.00722 10.731 7.76485 10.9462 7.57262L11.0026 7.52248C11.1603 7.38131 11.2713 7.19561 11.3211 6.98993C11.3709 6.78425 11.3571 6.56831 11.2814 6.37068C11.2057 6.17305 11.0719 6.00306 10.8975 5.8832C10.7231 5.76334 10.5164 5.69927 10.3048 5.69947Z" fill="black"/>
</svg>
