<svg width="21" height="21" viewBox="0 0 21 21" fill="none" xmlns="http://www.w3.org/2000/svg">
<path d="M10.2622 5.57422C10.046 5.57421 9.83524 5.64122 9.6588 5.76602C9.48236 5.89081 9.34897 6.06726 9.277 6.27104C9.22753 6.39725 9.13092 6.49929 9.0076 6.55558C8.88427 6.61188 8.7439 6.61802 8.61613 6.57272C8.48835 6.52741 8.3832 6.43421 8.32289 6.31281C8.26257 6.1914 8.25181 6.0513 8.29289 5.92211C8.39916 5.62197 8.57261 5.35008 8.80001 5.12721C9.0274 4.90435 9.30272 4.7364 9.60494 4.6362C9.90716 4.53599 10.2283 4.50619 10.5438 4.54905C10.8593 4.59191 11.1608 4.70632 11.4253 4.88352C11.6899 5.06072 11.9104 5.29604 12.0701 5.5715C12.2298 5.84695 12.3244 6.15526 12.3468 6.47287C12.3691 6.79049 12.3185 7.10901 12.199 7.4041C12.0794 7.69919 11.894 7.96306 11.6568 8.17553L11.614 8.21419C11.3842 8.41999 11.1763 8.60491 11.0185 8.80549C10.8514 9.01234 10.7856 9.18054 10.7856 9.33098C10.7856 9.55977 10.9109 9.76975 11.1125 9.8784L16.6975 12.8871C17.0238 13.0635 17.2819 13.3436 17.4311 13.6831C17.5803 14.0227 17.6121 14.4023 17.5213 14.7618C17.4306 15.1214 17.2226 15.4405 16.9301 15.6686C16.6377 15.8967 16.2776 16.0208 15.9067 16.0213H4.61554C4.24437 16.0213 3.88383 15.8973 3.5911 15.6691C3.29836 15.441 3.09019 15.1216 2.99961 14.7616C2.90902 14.4017 2.94121 14.0218 3.09105 13.6822C3.2409 13.3427 3.49984 13.0628 3.82679 12.8871L8.44751 10.4008C8.56896 10.34 8.70928 10.329 8.83874 10.3699C8.9682 10.4109 9.07661 10.5007 9.14101 10.6202C9.2054 10.7398 9.22071 10.8797 9.18369 11.0104C9.14667 11.141 9.06023 11.2521 8.9427 11.3201L4.32093 13.8065C4.19846 13.8718 4.10137 13.9762 4.04513 14.1031C3.9889 14.23 3.97677 14.3721 4.01066 14.5067C4.04455 14.6413 4.12252 14.7607 4.23214 14.8459C4.34177 14.931 4.47673 14.977 4.61554 14.9766H15.9088C16.0471 14.9761 16.1813 14.9296 16.2903 14.8444C16.3993 14.7592 16.4767 14.6401 16.5105 14.5059C16.5443 14.3718 16.5324 14.2302 16.4768 14.1036C16.4212 13.9769 16.325 13.8724 16.2034 13.8065L10.6174 10.7977C10.3526 10.6548 10.1314 10.4432 9.97693 10.185C9.82247 9.92685 9.74055 9.6318 9.73981 9.33098C9.73981 8.84832 9.96128 8.45447 10.1995 8.15464C10.4168 7.88197 10.6884 7.6396 10.9036 7.44738L10.96 7.39723C11.1177 7.25607 11.2287 7.07036 11.2785 6.86469C11.3283 6.65901 11.3144 6.44307 11.2388 6.24544C11.1631 6.04781 11.0293 5.87781 10.8549 5.75796C10.6805 5.6381 10.4738 5.57403 10.2622 5.57422Z" fill="black" fill-opacity="0.8"/>
</svg>
