<svg width="21" height="21" viewBox="0 0 21 21" fill="none" xmlns="http://www.w3.org/2000/svg">
<path d="M10.7617 5.52271C10.5456 5.52269 10.3348 5.5897 10.1583 5.7145C9.98188 5.8393 9.84848 6.01575 9.77652 6.21953C9.72704 6.34574 9.63043 6.44777 9.50711 6.50407C9.38379 6.56036 9.24341 6.56651 9.11564 6.5212C8.98787 6.4759 8.88271 6.3827 8.8224 6.26129C8.76208 6.13989 8.75133 5.99979 8.79241 5.8706C8.89867 5.57045 9.07212 5.29857 9.29952 5.0757C9.52691 4.85284 9.80224 4.68489 10.1045 4.58468C10.4067 4.48448 10.7278 4.45467 11.0433 4.49754C11.3588 4.5404 11.6603 4.6548 11.9249 4.83201C12.1894 5.00921 12.4099 5.24453 12.5696 5.51998C12.7293 5.79544 12.8239 6.10375 12.8463 6.42136C12.8686 6.73898 12.8181 7.05749 12.6985 7.35259C12.5789 7.64768 12.3935 7.91154 12.1563 8.12402L12.1135 8.16268C11.8837 8.36848 11.6758 8.55339 11.518 8.75398C11.3509 8.96083 11.2851 9.12903 11.2851 9.27946C11.2851 9.50825 11.4104 9.71824 11.6121 9.82689L17.197 12.8356C17.5233 13.012 17.7814 13.2921 17.9306 13.6316C18.0798 13.9712 18.1116 14.3507 18.0208 14.7103C17.9301 15.0699 17.7221 15.389 17.4296 15.6171C17.1372 15.8452 16.7771 15.9693 16.4062 15.9697H5.11505C4.74388 15.9697 4.38334 15.8458 4.09061 15.6176C3.79787 15.3894 3.5897 15.0701 3.49912 14.7101C3.40853 14.3502 3.44072 13.9703 3.59057 13.6307C3.74041 13.2911 3.99935 13.0113 4.3263 12.8356L10.0682 9.72909C10.1896 9.66836 10.3299 9.65731 10.4594 9.69828C10.5889 9.73926 10.6973 9.82903 10.7617 9.94858C10.8261 10.0681 10.8414 10.208 10.8044 10.3387C10.7673 10.4693 10.6809 10.5804 10.5634 10.6484L4.82044 13.755C4.69797 13.8203 4.60088 13.9247 4.54465 14.0516C4.48841 14.1785 4.47628 14.3206 4.51017 14.4552C4.54406 14.5898 4.62203 14.7092 4.73165 14.7944C4.84128 14.8795 4.97625 14.9255 5.11505 14.925H16.4083C16.5466 14.9246 16.6809 14.8781 16.7898 14.7929C16.8988 14.7076 16.9763 14.5886 17.01 14.4544C17.0438 14.3203 17.032 14.1787 16.9763 14.0521C16.9207 13.9254 16.8245 13.8209 16.7029 13.755L11.1169 10.7462C10.8521 10.6033 10.6309 10.3916 10.4764 10.1335C10.322 9.87534 10.2401 9.58029 10.2393 9.27946C10.2393 8.79681 10.4608 8.40296 10.699 8.10313C10.9163 7.83046 11.1879 7.58809 11.4031 7.39586L11.4595 7.34572C11.6172 7.20456 11.7283 7.01885 11.778 6.81317C11.8278 6.6075 11.814 6.39155 11.7383 6.19392C11.6627 5.99629 11.5288 5.8263 11.3544 5.70644C11.18 5.58658 10.9733 5.52251 10.7617 5.52271Z" fill="black" fill-opacity="0.8"/>
</svg>
