<svg width="16" height="17" viewBox="0 0 16 17" fill="none" xmlns="http://www.w3.org/2000/svg">
<path d="M4.46568 9.99601L7.99982 6.46186M6.3934 11.9237L7.99982 10.3173M0.876273 8.44484L7.94456 1.37655C8.18552 1.13552 8.51235 1.00007 8.85316 1H14.1043C14.4451 1 14.772 1.1354 15.013 1.37641C15.254 1.61742 15.3894 1.9443 15.3894 2.28514V7.53624C15.3893 7.87706 15.2539 8.20388 15.0129 8.44484L7.94456 15.5131C7.70356 15.7541 7.37674 15.8894 7.03597 15.8894C6.69519 15.8894 6.36837 15.7541 6.12737 15.5131L0.876273 10.262C0.635345 10.021 0.5 9.69421 0.5 9.35344C0.5 9.01266 0.635345 8.68584 0.876273 8.44484Z" stroke="black" stroke-width="0.988572" stroke-linecap="round" stroke-linejoin="round"/>
</svg>
