<svg width="24" height="24" viewBox="0 0 24 24" fill="none" xmlns="http://www.w3.org/2000/svg">
<path d="M4.22007 8.47015C4.3607 8.3297 4.55132 8.25081 4.75007 8.25081C4.94882 8.25081 5.13945 8.3297 5.28007 8.47015L12.0001 15.1902L18.7201 8.47015C18.7887 8.39647 18.8715 8.33736 18.9635 8.29637C19.0555 8.25538 19.1548 8.23334 19.2556 8.23156C19.3563 8.22979 19.4563 8.24831 19.5497 8.28603C19.6431 8.32375 19.7279 8.3799 19.7991 8.45112C19.8703 8.52233 19.9265 8.60717 19.9642 8.70056C20.0019 8.79394 20.0204 8.89397 20.0187 8.99468C20.0169 9.09538 19.9948 9.19469 19.9539 9.28669C19.9129 9.37869 19.8538 9.46149 19.7801 9.53015L12.5301 16.7802C12.3894 16.9206 12.1988 16.9995 12.0001 16.9995C11.8013 16.9995 11.6107 16.9206 11.4701 16.7802L4.22007 9.53015C4.07962 9.38953 4.00073 9.1989 4.00073 9.00015C4.00073 8.8014 4.07962 8.61078 4.22007 8.47015Z" fill="#666666"/>
</svg>
