<svg width="21" height="20" viewBox="0 0 21 20" fill="none" xmlns="http://www.w3.org/2000/svg">
<path d="M19.7969 10.1245H7.44188M3.08087 10.1245H1.29688M3.08087 10.1245C3.08087 9.54635 3.31055 8.99186 3.71938 8.58303C4.12821 8.1742 4.6827 7.94452 5.26088 7.94452C5.83905 7.94452 6.39354 8.1742 6.80237 8.58303C7.2112 8.99186 7.44088 9.54635 7.44088 10.1245C7.44088 10.7027 7.2112 11.2572 6.80237 11.666C6.39354 12.0748 5.83905 12.3045 5.26088 12.3045C4.6827 12.3045 4.12821 12.0748 3.71938 11.666C3.31055 11.2572 3.08087 10.7027 3.08087 10.1245ZM19.7969 16.7315H14.0489M14.0489 16.7315C14.0489 17.3098 13.8186 17.8649 13.4097 18.2739C13.0008 18.6828 12.4462 18.9125 11.8679 18.9125C11.2897 18.9125 10.7352 18.6818 10.3264 18.273C9.91755 17.8642 9.68787 17.3097 9.68787 16.7315M14.0489 16.7315C14.0489 16.1532 13.8186 15.5991 13.4097 15.1902C13.0008 14.7813 12.4462 14.5515 11.8679 14.5515C11.2897 14.5515 10.7352 14.7812 10.3264 15.19C9.91755 15.5989 9.68787 16.1534 9.68787 16.7315M9.68787 16.7315H1.29688M19.7969 3.51752H16.6919M12.3309 3.51752H1.29688M12.3309 3.51752C12.3309 2.93935 12.5606 2.38486 12.9694 1.97603C13.3782 1.5672 13.9327 1.33752 14.5109 1.33752C14.7972 1.33752 15.0806 1.39391 15.3451 1.50347C15.6096 1.61302 15.8499 1.7736 16.0524 1.97603C16.2548 2.17846 16.4154 2.41878 16.5249 2.68327C16.6345 2.94776 16.6909 3.23124 16.6909 3.51752C16.6909 3.80381 16.6345 4.08728 16.5249 4.35177C16.4154 4.61626 16.2548 4.85659 16.0524 5.05902C15.8499 5.26145 15.6096 5.42203 15.3451 5.53158C15.0806 5.64114 14.7972 5.69752 14.5109 5.69752C13.9327 5.69752 13.3782 5.46785 12.9694 5.05902C12.5606 4.65019 12.3309 4.0957 12.3309 3.51752Z" stroke="black" stroke-opacity="0.32" stroke-width="1.5" stroke-miterlimit="10" stroke-linecap="round"/>
</svg>
