<svg width="20" height="21" viewBox="0 0 20 21" fill="none" xmlns="http://www.w3.org/2000/svg">
<path d="M18.75 7.17487L17.5 3.42487C17.4565 3.29551 17.3719 3.18394 17.259 3.10719C17.1461 3.03045 17.0113 2.99276 16.875 2.99987H3.12498C2.98869 2.99276 2.85382 3.03045 2.74096 3.10719C2.6281 3.18394 2.54347 3.29551 2.49998 3.42487L1.24998 7.17487C1.24105 7.24124 1.24105 7.30851 1.24998 7.37487V11.1249C1.24998 11.2906 1.31583 11.4496 1.43304 11.5668C1.55025 11.684 1.70922 11.7499 1.87498 11.7499H2.49998V17.9999H3.74998V11.7499H7.49998V17.9999H17.5V11.7499H18.125C18.2907 11.7499 18.4497 11.684 18.5669 11.5668C18.6841 11.4496 18.75 11.2906 18.75 11.1249V7.37487C18.7589 7.30851 18.7589 7.24124 18.75 7.17487ZM16.25 16.7499H8.74998V11.7499H16.25V16.7499ZM17.5 10.4999H15V7.99987H13.75V10.4999H10.625V7.99987H9.37498V10.4999H6.24998V7.99987H4.99998V10.4999H2.49998V7.47487L3.57498 4.24987H16.425L17.5 7.47487V10.4999Z" fill="white"/>
</svg>
