<svg width="20" height="21" viewBox="0 0 20 21" fill="none" xmlns="http://www.w3.org/2000/svg">
<path d="M12.3541 4.64689C12.2605 4.55303 12.1334 4.50019 12.0008 4.5C11.8682 4.49981 11.741 4.55229 11.6471 4.64589L6.16311 10.1109C6.11186 10.162 6.07119 10.2227 6.04345 10.2895C6.0157 10.3564 6.00142 10.428 6.00142 10.5004C6.00142 10.5728 6.0157 10.6444 6.04345 10.7113C6.07119 10.7781 6.11186 10.8388 6.16311 10.8899L11.6471 16.3549C11.7415 16.4458 11.8679 16.4961 11.999 16.4948C12.1301 16.4934 12.2555 16.4407 12.348 16.3478C12.4406 16.255 12.493 16.1295 12.494 15.9984C12.4949 15.8673 12.4443 15.7411 12.3531 15.6469L7.18811 10.4999L12.3531 5.35389C12.447 5.26026 12.4998 5.13318 12.5 5.0006C12.5002 4.86802 12.4477 4.74079 12.3541 4.64689Z" fill="black"/>
</svg>
