<svg width="21" height="21" viewBox="0 0 21 21" fill="none" xmlns="http://www.w3.org/2000/svg">
<path d="M10.1754 4.96094C11.7171 4.96094 13.1955 5.54111 14.2856 6.57382C15.3757 7.60653 15.9881 9.00719 15.9881 10.4677C15.9881 12.7474 14.1539 15.1361 10.563 17.6876C10.4512 17.767 10.3152 17.81 10.1754 17.81C10.0357 17.81 9.89973 17.767 9.78793 17.6876C6.19701 15.1361 4.36279 12.7474 4.36279 10.4677C4.36279 9.00719 4.9752 7.60653 6.06528 6.57382C7.15536 5.54111 8.63383 4.96094 10.1754 4.96094ZM10.1754 6.18465C8.97641 6.18465 7.82649 6.6359 6.97865 7.43912C6.13081 8.24234 5.65449 9.33174 5.65449 10.4677C5.65449 12.1258 7.0224 14.0385 9.81893 16.1616L10.1754 16.4284L10.532 16.1616C13.3285 14.0385 14.6964 12.1258 14.6964 10.4677C14.6964 9.33174 14.2201 8.24234 13.3722 7.43912C12.5244 6.6359 11.3745 6.18465 10.1754 6.18465ZM10.1754 9.24394C10.518 9.24394 10.8466 9.37287 11.0888 9.60236C11.3311 9.83185 11.4671 10.1431 11.4671 10.4677C11.4671 10.7922 11.3311 11.1035 11.0888 11.333C10.8466 11.5624 10.518 11.6914 10.1754 11.6914C9.83286 11.6914 9.50432 11.5624 9.26207 11.333C9.01983 11.1035 8.88374 10.7922 8.88374 10.4677C8.88374 10.1431 9.01983 9.83185 9.26207 9.60236C9.50432 9.37287 9.83286 9.24394 10.1754 9.24394Z" fill="#787A7C"/>
</svg>
