<svg width="24" height="24" viewBox="0 0 24 24" fill="none" xmlns="http://www.w3.org/2000/svg">
<path d="M5.84292 4.56789C7.47586 2.93495 9.6906 2.01758 11.9999 2.01758C14.3092 2.01758 16.524 2.93495 18.1569 4.56789C19.7899 6.20083 20.7072 8.41557 20.7072 10.7249C20.7072 13.0342 19.7899 15.249 18.1569 16.8819L16.9699 18.0559C16.0953 18.9146 14.9599 20.0186 13.5639 21.3679C13.1443 21.7736 12.5836 22.0004 11.9999 22.0004C11.4163 22.0004 10.8555 21.7736 10.4359 21.3679L6.94592 17.9719C6.50592 17.5412 6.13826 17.1779 5.84292 16.8819C5.03434 16.0734 4.39293 15.1135 3.95532 14.0571C3.51771 13.0006 3.29248 11.8684 3.29248 10.7249C3.29248 9.58142 3.51771 8.44914 3.95532 7.39272C4.39293 6.3363 5.03434 5.37642 5.84292 4.56789ZM17.0969 5.62989C16.4277 4.96061 15.6332 4.42969 14.7588 4.06746C13.8844 3.70522 12.9472 3.51875 12.0008 3.51871C10.0893 3.51861 8.2561 4.27785 6.90442 5.62939C5.55275 6.98093 4.79333 8.81407 4.79324 10.7255C4.79314 12.637 5.55238 14.4702 6.90392 15.8219L8.39092 17.2889C9.20959 18.0902 10.2389 19.0902 11.4789 20.2889C11.6187 20.4244 11.8056 20.5002 12.0002 20.5004C12.1948 20.5006 12.3819 20.4251 12.5219 20.2899L15.9169 16.9879C16.3856 16.5279 16.7789 16.1392 17.0969 15.8219C17.7663 15.1526 18.2972 14.3581 18.6595 13.4836C19.0217 12.6092 19.2082 11.6719 19.2082 10.7254C19.2082 9.77886 19.0217 8.84161 18.6595 7.96714C18.2972 7.09268 17.7663 6.29914 17.0969 5.62989ZM11.9999 7.99889C12.3987 7.99161 12.7949 8.06387 13.1655 8.21144C13.536 8.35901 13.8734 8.57894 14.158 8.85837C14.4426 9.13781 14.6686 9.47115 14.8229 9.83893C14.9772 10.2067 15.0567 10.6016 15.0567 11.0004C15.0567 11.3992 14.9772 11.7941 14.8229 12.1618C14.6686 12.5296 14.4426 12.863 14.158 13.1424C13.8734 13.4218 13.536 13.6418 13.1655 13.7893C12.7949 13.9369 12.3987 14.0092 11.9999 14.0019C11.2134 13.9875 10.4639 13.665 9.91269 13.1037C9.36152 12.5423 9.05271 11.7871 9.05271 11.0004C9.05271 10.2137 9.36152 9.45844 9.91269 8.89712C10.4639 8.33579 11.2134 8.01325 11.9999 7.99889ZM11.9999 9.49889C11.7995 9.49372 11.6 9.52873 11.4133 9.60186C11.2266 9.67499 11.0565 9.78476 10.9129 9.9247C10.7693 10.0646 10.6552 10.2319 10.5772 10.4167C10.4993 10.6014 10.4592 10.7999 10.4592 11.0004C10.4592 11.2009 10.4993 11.3994 10.5772 11.5841C10.6552 11.7689 10.7693 11.9361 10.9129 12.0761C11.0565 12.216 11.2266 12.3258 11.4133 12.3989C11.6 12.4721 11.7995 12.5071 11.9999 12.5019C12.3885 12.4877 12.7565 12.3234 13.0264 12.0434C13.2963 11.7635 13.4471 11.3898 13.4471 11.0009C13.4471 10.612 13.2963 10.2383 13.0264 9.95837C12.7565 9.67843 12.3885 9.51408 11.9999 9.49989" fill="#0F0F0F"/>
</svg>
