<svg width="12" height="15" viewBox="0 0 12 15" fill="none" xmlns="http://www.w3.org/2000/svg">
<path fill-rule="evenodd" clip-rule="evenodd" d="M5.50833 13.9898C5.50833 13.9898 0.666992 9.91247 0.666992 5.90047C0.666992 4.48598 1.2289 3.12943 2.22909 2.12924C3.22928 1.12904 4.58584 0.567139 6.00033 0.567139C7.41481 0.567139 8.77137 1.12904 9.77156 2.12924C10.7718 3.12943 11.3337 4.48598 11.3337 5.90047C11.3337 9.91247 6.49233 13.9898 6.49233 13.9898C6.22299 14.2378 5.77966 14.2351 5.50833 13.9898ZM6.00033 8.23381C6.30674 8.23381 6.61016 8.17345 6.89325 8.05619C7.17635 7.93893 7.43357 7.76706 7.65024 7.55039C7.86691 7.33372 8.03878 7.07649 8.15604 6.7934C8.2733 6.51031 8.33366 6.20689 8.33366 5.90047C8.33366 5.59405 8.2733 5.29064 8.15604 5.00754C8.03878 4.72445 7.86691 4.46723 7.65024 4.25056C7.43357 4.03389 7.17635 3.86201 6.89325 3.74475C6.61016 3.62749 6.30674 3.56714 6.00033 3.56714C5.38149 3.56714 4.78799 3.81297 4.35041 4.25056C3.91282 4.68814 3.66699 5.28163 3.66699 5.90047C3.66699 6.51931 3.91282 7.1128 4.35041 7.55039C4.78799 7.98797 5.38149 8.23381 6.00033 8.23381Z" fill="black"/>
</svg>
