<svg width="20" height="21" viewBox="0 0 20 21" fill="none" xmlns="http://www.w3.org/2000/svg">
<path fill-rule="evenodd" clip-rule="evenodd" d="M15.075 2.62398C14.615 2.36565 14.125 2.34065 13.6075 2.40481C13.1158 2.46648 12.5166 2.62148 11.7975 2.80898L10.115 3.24565C9.39581 3.43315 8.79748 3.58815 8.33998 3.77398C7.85748 3.96898 7.44081 4.23065 7.17081 4.68481C6.89915 5.14148 6.87248 5.62981 6.93998 6.13981C7.00415 6.62065 7.16498 7.20398 7.35665 7.89898L7.80915 9.53565C8.00081 10.2315 8.16248 10.814 8.35498 11.2606C8.55915 11.7356 8.83165 12.1398 9.29498 12.3998C9.75498 12.6573 10.245 12.6831 10.7633 12.6181C11.255 12.5573 11.8541 12.4015 12.5733 12.214L14.2558 11.7773C14.975 11.5906 15.5733 11.4348 16.0308 11.249C16.5133 11.054 16.93 10.7923 17.2 10.3381C17.4716 9.88148 17.4983 9.39315 17.4308 8.88398C17.3666 8.40315 17.2058 7.81898 17.0141 7.12398L16.5616 5.48731C16.37 4.79231 16.2083 4.20898 16.0158 3.76231C15.8116 3.28731 15.5375 2.88315 15.075 2.62398ZM12.0716 4.02898C12.8425 3.82898 13.3616 3.69565 13.7633 3.64565C14.1475 3.59731 14.3316 3.63981 14.4658 3.71481C14.5966 3.78815 14.7225 3.91565 14.8683 4.25648C15.0225 4.61481 15.1625 5.11398 15.3691 5.86231L15.7975 7.41481C16.005 8.16315 16.1416 8.66315 16.1925 9.04815C16.2408 9.41398 16.1975 9.57981 16.1258 9.69898C16.0533 9.82148 15.9216 9.94565 15.5633 10.0906C15.19 10.2415 14.6716 10.3781 13.9008 10.5781L12.3008 10.994C11.53 11.194 11.0108 11.3273 10.6091 11.3773C10.2241 11.4265 10.0408 11.384 9.90665 11.309C9.77581 11.2356 9.64998 11.1073 9.50415 10.7673C9.34998 10.409 9.20998 9.90898 9.00331 9.16065L8.57498 7.60898C8.36748 6.85898 8.23081 6.35981 8.17998 5.97565C8.13165 5.60898 8.17498 5.44398 8.24665 5.32398C8.31915 5.20148 8.45081 5.07731 8.80915 4.93231C9.18248 4.78148 9.70081 4.64565 10.4716 4.44481L12.0716 4.02898Z" fill="#878787"/>
<path fill-rule="evenodd" clip-rule="evenodd" d="M2.66664 4.43741C2.50877 4.39871 2.34202 4.42303 2.20178 4.50523C2.06154 4.58743 1.95884 4.72103 1.91548 4.8777C1.87211 5.03436 1.89148 5.20175 1.96949 5.34437C2.0475 5.48698 2.178 5.59359 2.33331 5.64158L3.75248 6.03575C4.10748 6.13408 4.37164 6.40241 4.46164 6.72825L6.08831 12.6141C6.02553 12.6263 5.96303 12.6407 5.90081 12.6574C4.25331 13.0849 3.24664 14.7424 3.69831 16.3799C4.14831 18.0091 5.85998 18.9482 7.50081 18.5216C8.93748 18.1491 9.88664 16.8416 9.80664 15.4282L16.8233 13.6049C16.9028 13.5843 16.9774 13.5482 17.0429 13.4987C17.1084 13.4493 17.1635 13.3874 17.2051 13.3166C17.2467 13.2459 17.2739 13.1676 17.2853 13.0863C17.2966 13.005 17.2919 12.9223 17.2712 12.8428C17.2506 12.7634 17.2145 12.6888 17.1651 12.6233C17.1156 12.5578 17.0537 12.5026 16.983 12.461C16.9122 12.4194 16.8339 12.3922 16.7526 12.3809C16.6713 12.3695 16.5886 12.3743 16.5091 12.3949L9.47748 14.2224C9.26707 13.8205 8.97099 13.4696 8.61015 13.1946C8.24931 12.9195 7.8325 12.7271 7.38914 12.6307L5.66664 6.39491C5.56069 6.0199 5.3595 5.67869 5.08263 5.40445C4.80577 5.13021 4.46265 4.93228 4.08664 4.82991L2.66664 4.43741ZM6.21581 13.8666C7.22581 13.6049 8.23914 14.1907 8.49914 15.1324C8.75748 16.0657 8.19081 17.0516 7.18748 17.3124C6.17748 17.5749 5.16414 16.9882 4.90414 16.0466C4.64581 15.1132 5.21248 14.1274 6.21581 13.8666Z" fill="#878787"/>
</svg>
