<svg width="17" height="17" viewBox="0 0 17 17" fill="none" xmlns="http://www.w3.org/2000/svg">
<path d="M15.2503 16.3333C15.5818 16.3333 15.8998 16.2016 16.1342 15.9672C16.3686 15.7328 16.5003 15.4149 16.5003 15.0833V12.1667C16.5003 11.8351 16.3686 11.5172 16.1342 11.2828C15.8998 11.0484 15.5818 10.9167 15.2503 10.9167C14.2753 10.9167 13.317 10.7667 12.4003 10.4583C12.1812 10.3892 11.9472 10.3813 11.724 10.4357C11.5007 10.49 11.2965 10.6045 11.1337 10.7667L9.93366 11.9667C7.86052 10.8353 6.15665 9.13147 5.02533 7.05833L6.21699 5.86667C6.55866 5.54167 6.68366 5.05833 6.53366 4.59167C6.23366 3.68333 6.08366 2.725 6.08366 1.75C6.08366 1.41848 5.95196 1.10054 5.71754 0.866117C5.48312 0.631696 5.16518 0.5 4.83366 0.5H1.91699C1.58547 0.5 1.26753 0.631696 1.03311 0.866117C0.798688 1.10054 0.666992 1.41848 0.666992 1.75C0.666992 9.79167 7.20866 16.3333 15.2503 16.3333ZM1.91699 1.33333H4.83366C4.94417 1.33333 5.05015 1.37723 5.12829 1.45537C5.20643 1.53351 5.25033 1.63949 5.25033 1.75C5.25033 2.81667 5.41699 3.85833 5.74199 4.85C5.78366 4.96667 5.77533 5.13333 5.64199 5.26667L4.00033 6.9C5.37533 9.59167 7.39199 11.6083 10.092 13L11.717 11.3583C11.8337 11.2417 11.992 11.2083 12.142 11.25C13.142 11.5833 14.1837 11.75 15.2503 11.75C15.3608 11.75 15.4668 11.7939 15.545 11.872C15.6231 11.9502 15.667 12.0562 15.667 12.1667V15.0833C15.667 15.1938 15.6231 15.2998 15.545 15.378C15.4668 15.4561 15.3608 15.5 15.2503 15.5C7.66699 15.5 1.50033 9.33333 1.50033 1.75C1.50033 1.63949 1.54422 1.53351 1.62236 1.45537C1.7005 1.37723 1.80649 1.33333 1.91699 1.33333Z" fill="black"/>
</svg>
