<svg width="21" height="21" viewBox="0 0 21 21" fill="none" xmlns="http://www.w3.org/2000/svg">
<path d="M5.5335 4.60807C5.5835 5.34974 5.7085 6.07474 5.9085 6.76641L4.9085 7.76641C4.56683 6.76641 4.35016 5.70807 4.27516 4.60807H5.5335ZM13.7502 14.6247C14.4585 14.8247 15.1835 14.9497 15.9168 14.9997V16.2414C14.8168 16.1664 13.7585 15.9497 12.7502 15.6164L13.7502 14.6247ZM6.3335 2.94141H3.41683C2.9585 2.94141 2.5835 3.31641 2.5835 3.77474C2.5835 11.5997 8.92516 17.9414 16.7502 17.9414C17.2085 17.9414 17.5835 17.5664 17.5835 17.1081V14.1997C17.5835 13.7414 17.2085 13.3664 16.7502 13.3664C15.7168 13.3664 14.7085 13.1997 13.7752 12.8914C13.6926 12.8606 13.6048 12.8464 13.5168 12.8497C13.3002 12.8497 13.0918 12.9331 12.9252 13.0914L11.0918 14.9247C8.72972 13.7167 6.80822 11.7952 5.60016 9.43307L7.4335 7.59974C7.66683 7.36641 7.7335 7.04141 7.64183 6.74974C7.32626 5.78965 7.16591 4.78536 7.16683 3.77474C7.16683 3.31641 6.79183 2.94141 6.3335 2.94141Z" fill="#787A7C"/>
</svg>
