<svg width="21" height="21" viewBox="0 0 21 21" fill="none" xmlns="http://www.w3.org/2000/svg">
<path fill-rule="evenodd" clip-rule="evenodd" d="M10.9478 0.921143L13.483 5.18514H8.72625L6.46724 0.947569C6.64285 0.936487 6.82442 0.928815 7.01452 0.924552L7.30521 0.921143H10.9478ZM12.9314 0.921143H13.1855C15.794 0.921143 16.9943 1.5639 17.9933 2.52973C18.6585 3.19129 19.1291 4.02286 19.3539 4.93367L19.4135 5.18514H15.4675L12.9314 0.921143ZM4.69071 1.24252L6.79373 5.18514H1.07714C1.24946 4.30333 1.65065 3.48234 2.24047 2.80455C2.83029 2.12675 3.58798 1.61599 4.43753 1.3235L4.69071 1.24252ZM12.9894 12.183L9.11498 9.94613C9.00465 9.88236 8.88029 9.8468 8.75293 9.84258C8.62557 9.83835 8.49914 9.86561 8.38482 9.92192C8.27051 9.97823 8.17185 10.0619 8.09758 10.1654C8.02331 10.269 7.97573 10.3892 7.95904 10.5156L7.95222 10.6179V15.0916C7.95251 15.2187 7.98406 15.3439 8.04409 15.456C8.10412 15.5681 8.19079 15.6637 8.29647 15.7345C8.40215 15.8052 8.5236 15.8489 8.65013 15.8616C8.77666 15.8744 8.90438 15.8558 9.02206 15.8076L9.11498 15.7625L12.9894 13.5256C13.0996 13.4619 13.1924 13.3721 13.2596 13.264C13.3268 13.156 13.3664 13.033 13.3748 12.906C13.3833 12.779 13.3603 12.6519 13.3079 12.5359C13.2556 12.4199 13.1754 12.3186 13.0746 12.2409L12.9894 12.183ZM0.884485 6.89006H19.6079L19.6207 7.19695L19.6232 7.35806V13.2392C19.6232 15.8486 18.9796 17.0488 18.0138 18.047C17.0326 18.9967 15.8826 19.6292 13.4702 19.6744L13.1855 19.6769H7.30606C4.69753 19.6769 3.49812 19.0333 2.49819 18.0667C1.54855 17.0863 0.917731 15.9372 0.871698 13.523L0.869141 13.2392V7.35806L0.871698 7.19695L0.884485 6.89006Z" fill="white"/>
</svg>
