<svg width="32" height="32" viewBox="0 0 32 32" fill="none" xmlns="http://www.w3.org/2000/svg">
<path d="M5.73096 12.314H26.4115L25.3322 24.1807C25.2739 24.823 24.9775 25.4203 24.5014 25.8553C24.0253 26.2903 23.4037 26.5316 22.7588 26.5318H9.38366C8.73873 26.5316 8.11719 26.2903 7.64106 25.8553C7.16493 25.4203 6.86859 24.823 6.81022 24.1807L5.73096 12.314Z" stroke="black" stroke-width="1.46149" stroke-linejoin="round"/>
<path d="M10.9009 14.8988V11.0212C10.9009 9.65001 11.4456 8.33496 12.4152 7.36537C13.3848 6.39578 14.6998 5.85107 16.071 5.85107C17.4422 5.85107 18.7573 6.39578 19.7269 7.36537C20.6964 8.33496 21.2412 9.65001 21.2412 11.0212V14.8988" stroke="black" stroke-width="1.46149" stroke-linecap="round"/>
</svg>
