<svg width="32" height="32" viewBox="0 0 32 32" fill="none" xmlns="http://www.w3.org/2000/svg">
<path d="M3.33325 5.6665C3.33325 5.40129 3.43861 5.14693 3.62615 4.9594C3.81368 4.77186 4.06804 4.6665 4.33325 4.6665H5.07725C6.34392 4.6665 7.10392 5.5185 7.53725 6.3105C7.82658 6.8385 8.03592 7.4505 8.19992 8.00517L8.33325 7.99984H24.9972C26.1039 7.99984 26.9039 9.0585 26.5999 10.1238L24.1626 18.6692C23.9441 19.4356 23.4817 20.11 22.8456 20.5902C22.2095 21.0705 21.4343 21.3303 20.6373 21.3305H12.7066C11.9032 21.3305 11.1221 21.0667 10.4833 20.5797C9.84445 20.0926 9.38325 19.4092 9.17058 18.6345L8.15725 14.9385L6.47725 9.2745L6.47592 9.26384C6.26792 8.50784 6.07325 7.79984 5.78258 7.27184C5.50392 6.7585 5.27992 6.6665 5.07859 6.6665H4.33325C4.06804 6.6665 3.81368 6.56115 3.62615 6.37361C3.43861 6.18607 3.33325 5.93172 3.33325 5.6665ZM10.0973 14.4532L11.0986 18.1052C11.2986 18.8278 11.9559 19.3305 12.7066 19.3305H20.6373C20.9995 19.3305 21.3519 19.2125 21.6411 18.9942C21.9303 18.776 22.1405 18.4695 22.2399 18.1212L24.5559 9.99984H8.77992L10.0786 14.3825L10.0973 14.4532ZM14.6666 25.3332C14.6666 26.0404 14.3856 26.7187 13.8855 27.2188C13.3854 27.7189 12.7072 27.9998 11.9999 27.9998C11.2927 27.9998 10.6144 27.7189 10.1143 27.2188C9.6142 26.7187 9.33325 26.0404 9.33325 25.3332C9.33325 24.6259 9.6142 23.9476 10.1143 23.4476C10.6144 22.9475 11.2927 22.6665 11.9999 22.6665C12.7072 22.6665 13.3854 22.9475 13.8855 23.4476C14.3856 23.9476 14.6666 24.6259 14.6666 25.3332ZM12.6666 25.3332C12.6666 25.1564 12.5963 24.9868 12.4713 24.8618C12.3463 24.7367 12.1767 24.6665 11.9999 24.6665C11.8231 24.6665 11.6535 24.7367 11.5285 24.8618C11.4035 24.9868 11.3333 25.1564 11.3333 25.3332C11.3333 25.51 11.4035 25.6796 11.5285 25.8046C11.6535 25.9296 11.8231 25.9998 11.9999 25.9998C12.1767 25.9998 12.3463 25.9296 12.4713 25.8046C12.5963 25.6796 12.6666 25.51 12.6666 25.3332ZM23.9999 25.3332C23.9999 26.0404 23.719 26.7187 23.2189 27.2188C22.7188 27.7189 22.0405 27.9998 21.3333 27.9998C20.626 27.9998 19.9477 27.7189 19.4476 27.2188C18.9475 26.7187 18.6666 26.0404 18.6666 25.3332C18.6666 24.6259 18.9475 23.9476 19.4476 23.4476C19.9477 22.9475 20.626 22.6665 21.3333 22.6665C22.0405 22.6665 22.7188 22.9475 23.2189 23.4476C23.719 23.9476 23.9999 24.6259 23.9999 25.3332ZM21.9999 25.3332C21.9999 25.1564 21.9297 24.9868 21.8047 24.8618C21.6796 24.7367 21.5101 24.6665 21.3333 24.6665C21.1564 24.6665 20.9869 24.7367 20.8618 24.8618C20.7368 24.9868 20.6666 25.1564 20.6666 25.3332C20.6666 25.51 20.7368 25.6796 20.8618 25.8046C20.9869 25.9296 21.1564 25.9998 21.3333 25.9998C21.5101 25.9998 21.6796 25.9296 21.8047 25.8046C21.9297 25.6796 21.9999 25.51 21.9999 25.3332Z" fill="#0F0F0F"/>
</svg>
