<svg width="12" height="7" viewBox="0 0 12 7" fill="none" xmlns="http://www.w3.org/2000/svg">
<path d="M6.5519 6.7174L11.8619 1.1444C11.9505 1.05141 12 0.927867 12 0.799397C12 0.670927 11.9505 0.547386 11.8619 0.454398L11.8559 0.448397C11.8129 0.403162 11.7612 0.367143 11.7039 0.342529C11.6465 0.317915 11.5848 0.305222 11.5224 0.305222C11.46 0.305222 11.3983 0.317915 11.3409 0.342529C11.2836 0.367143 11.2319 0.403162 11.1889 0.448397L6.1889 5.6964L1.1909 0.448397C1.14793 0.403162 1.0962 0.367143 1.03887 0.342529C0.981539 0.317915 0.919798 0.305222 0.857405 0.305222C0.795012 0.305222 0.733271 0.317915 0.675938 0.342529C0.618605 0.367143 0.566878 0.403162 0.523905 0.448397L0.517904 0.454398C0.429259 0.547386 0.379808 0.670927 0.379808 0.799397C0.379808 0.927867 0.429259 1.05141 0.517904 1.1444L5.8279 6.7174C5.8746 6.76641 5.93077 6.80543 5.99299 6.83209C6.05522 6.85875 6.12221 6.8725 6.1899 6.8725C6.2576 6.8725 6.32459 6.85875 6.38682 6.83209C6.44904 6.80543 6.50521 6.76641 6.5519 6.7174Z" fill="black"/>
</svg>
