<svg width="16" height="17" viewBox="0 0 16 17" fill="none" xmlns="http://www.w3.org/2000/svg">
<path d="M10.9575 11.991C9.63257 13.088 7.93603 13.6326 6.22016 13.5116C4.50428 13.3907 2.90091 12.6135 1.74297 11.3415C0.585029 10.0694 -0.0385034 8.4003 0.00184262 6.68064C0.0421887 4.96098 0.743313 3.32292 1.95963 2.1066C3.17595 0.890286 4.81401 0.189161 6.53367 0.148815C8.25333 0.108469 9.92246 0.732002 11.1945 1.88994C12.4665 3.04788 13.2437 4.65125 13.3646 6.36713C13.4856 8.083 12.941 9.77954 11.844 11.1045L15.7061 14.9666C15.7678 15.024 15.8172 15.0933 15.8515 15.1702C15.8858 15.2472 15.9042 15.3302 15.9057 15.4144C15.9072 15.4987 15.8917 15.5823 15.8601 15.6604C15.8286 15.7385 15.7816 15.8095 15.7221 15.869C15.6625 15.9286 15.5916 15.9756 15.5135 16.0071C15.4354 16.0387 15.3517 16.0541 15.2675 16.0527C15.1833 16.0512 15.1002 16.0327 15.0233 15.9985C14.9463 15.9642 14.8771 15.9147 14.8196 15.8531L10.9575 11.991ZM12.1267 6.83754C12.1267 5.3958 11.5539 4.0131 10.5345 2.99364C9.51501 1.97417 8.13232 1.40144 6.69057 1.40144C5.24883 1.40144 3.86613 1.97417 2.84666 2.99364C1.8272 4.0131 1.25446 5.3958 1.25446 6.83754C1.25446 8.27929 1.8272 9.66199 2.84666 10.6815C3.86613 11.7009 5.24883 12.2737 6.69057 12.2737C8.13232 12.2737 9.51501 11.7009 10.5345 10.6815C11.5539 9.66199 12.1267 8.27929 12.1267 6.83754Z" fill="black"/>
</svg>
