<svg width="12" height="7" viewBox="0 0 12 7" fill="none" xmlns="http://www.w3.org/2000/svg">
<path d="M5.82786 0.37147L0.517856 5.94447C0.429211 6.03746 0.379761 6.161 0.379761 6.28947C0.379761 6.41794 0.429211 6.54148 0.517856 6.63447L0.523856 6.64047C0.566829 6.68571 0.618556 6.72172 0.675889 6.74634C0.733222 6.77095 0.794963 6.78365 0.857356 6.78365C0.919749 6.78365 0.98149 6.77095 1.03882 6.74634C1.09616 6.72172 1.14788 6.68571 1.19086 6.64047L6.19086 1.39247L11.1889 6.64047C11.2318 6.68571 11.2836 6.72172 11.3409 6.74634C11.3982 6.77095 11.46 6.78365 11.5224 6.78365C11.5847 6.78365 11.6465 6.77095 11.7038 6.74634C11.7612 6.72172 11.8129 6.68571 11.8559 6.64047L11.8619 6.63447C11.9505 6.54148 12 6.41794 12 6.28947C12 6.161 11.9505 6.03746 11.8619 5.94447L6.55186 0.37147C6.50516 0.322458 6.449 0.283439 6.38677 0.256778C6.32454 0.230117 6.25755 0.21637 6.18986 0.21637C6.12216 0.21637 6.05517 0.230117 5.99294 0.256778C5.93072 0.283439 5.87455 0.322458 5.82786 0.37147Z" fill="black"/>
</svg>
