<svg width="18" height="19" viewBox="0 0 18 19" fill="none" xmlns="http://www.w3.org/2000/svg">
<path d="M14.4541 2.98145C15.6967 2.98145 16.7041 3.9888 16.7041 5.23145V12.7314C16.7039 13.9739 15.6966 14.9814 14.4541 14.9814H3.9541C2.71174 14.9813 1.70431 13.9738 1.7041 12.7314V5.23145C1.7041 3.98891 2.71161 2.98162 3.9541 2.98145H14.4541ZM9.62012 10.3555C9.36825 10.5232 9.03988 10.5233 8.78809 10.3555L3.2041 6.63281V12.7314C3.20431 13.1454 3.54016 13.4813 3.9541 13.4814H14.4541C14.8682 13.4814 15.2039 13.1455 15.2041 12.7314V6.63281L9.62012 10.3555ZM3.9541 4.48145C3.66435 4.48157 3.41581 4.64707 3.29102 4.8877L9.2041 8.83008L15.1172 4.8877C14.9923 4.64713 14.7439 4.48145 14.4541 4.48145H3.9541Z" fill="#121212"/>
</svg>
