<svg width="18" height="15" viewBox="0 0 18 15" fill="none" xmlns="http://www.w3.org/2000/svg">
<g clip-path="url(#clip0_181_523)">
<path fill-rule="evenodd" clip-rule="evenodd" d="M-0.00390625 0.0292969H25.6461V1.10664H-0.00390625V0.0292969ZM-0.00390625 2.18398H25.6461V3.26133H-0.00390625V2.18398ZM-0.00390625 4.33594H25.6461V5.41602H-0.00390625V4.33594ZM-0.00390625 6.49062H25.6461V7.56797H-0.00390625V6.49062ZM-0.00390625 8.64531H25.6461V9.72266H-0.00390625V8.64531ZM-0.00390625 10.7973H25.6461V11.8746H-0.00390625V10.7973ZM-0.00390625 12.952H25.6461V14.0293H-0.00390625V12.952Z" fill="#BD3D44"/>
<path fill-rule="evenodd" clip-rule="evenodd" d="M-0.00390625 1.10645H25.6461V2.18379H-0.00390625V1.10645ZM-0.00390625 3.26113H25.6461V4.33574H-0.00390625V3.26113ZM-0.00390625 5.41309H25.6461V6.49043H-0.00390625V5.41309ZM-0.00390625 7.56777H25.6461V8.64512H-0.00390625V7.56777ZM-0.00390625 9.72246H25.6461V10.7998H-0.00390625V9.72246ZM-0.00390625 11.8744H25.6461V12.9518H-0.00390625V11.8744Z" fill="white"/>
<path fill-rule="evenodd" clip-rule="evenodd" d="M-0.00292969 0.0292969H10.2565V7.56797H-0.00292969V0.0292969Z" fill="#192F5D"/>
<path fill-rule="evenodd" clip-rule="evenodd" d="M0.852539 0.351562L0.947461 0.649609H1.24805L1.00547 0.832812L1.09775 1.13359L0.852539 0.947656L0.609961 1.13086L0.702246 0.832812L0.457031 0.649609H0.762891L0.852539 0.351562ZM2.56377 0.351562L2.65605 0.649609H2.95928L2.71406 0.832812L2.80635 1.13359L2.56377 0.947656L2.31855 1.13086L2.41084 0.832812L2.16826 0.649609H2.46885L2.56377 0.351562ZM4.27236 0.351562L4.36729 0.649609H4.66523L4.42266 0.832812L4.51494 1.13359L4.26973 0.947656L4.02715 1.13086L4.11943 0.832812L3.87422 0.649609H4.17744L4.27236 0.351562ZM5.98359 0.351562L6.07588 0.649609H6.3791L6.13389 0.832812L6.22881 1.13359L5.98359 0.947656L5.73838 1.13086L5.8333 0.832812L5.58809 0.649609H5.88867L5.98359 0.351562ZM7.69219 0.351562L7.78711 0.649609H8.0877L7.84512 0.832812L7.9374 1.13359L7.69219 0.947656L7.44961 1.13086L7.54189 0.832812L7.29932 0.649609H7.5999L7.69219 0.351562ZM9.40342 0.351562L9.4957 0.649609H9.79893L9.55371 0.832812L9.64863 1.13359L9.40342 0.947656L9.1582 1.13086L9.25313 0.832812L9.00791 0.649609H9.31113L9.40342 0.351562ZM1.70947 1.10625L1.80176 1.4043H2.10498L1.85977 1.5875L1.94941 1.88555L1.71211 1.70234L1.46689 1.88555L1.55391 1.5875L1.3166 1.4043H1.61719L1.70947 1.10625ZM3.41807 1.10625L3.51299 1.4043H3.81357L3.56836 1.5875L3.66328 1.88555L3.41807 1.70234L3.17285 1.88555L3.26777 1.5875L3.02256 1.4043H3.32578L3.41807 1.10625ZM5.1293 1.10625L5.22158 1.4043H5.52481L5.27959 1.5875L5.37188 1.88555L5.1293 1.70234L4.88408 1.88555L4.97637 1.5875L4.73379 1.4043H5.03438L5.1293 1.10625ZM6.83789 1.10625L6.93281 1.4043H7.2334L6.98818 1.5875L7.08311 1.88555L6.83789 1.70234L6.59531 1.88555L6.6876 1.5875L6.44238 1.4043H6.74824L6.83789 1.10625ZM8.54912 1.10625L8.64141 1.4043H8.94463L8.69941 1.5875L8.7917 1.88555L8.54912 1.70234L8.30391 1.88555L8.39619 1.5875L8.15361 1.4043H8.4542L8.54912 1.10625ZM0.852539 1.8582L0.947461 2.16172H1.24805L1.00547 2.34492L1.09775 2.64297L0.852539 2.45703L0.609961 2.64297L0.702246 2.34219L0.457031 2.15898H0.762891L0.852539 1.8582ZM2.56377 1.8582L2.65605 2.15898H2.95928L2.71406 2.34219L2.80635 2.64023L2.56377 2.4543L2.31855 2.64023L2.41084 2.33945L2.16826 2.15625H2.46885L2.56377 1.8582ZM4.27236 1.8582L4.36729 2.15898H4.66523L4.42266 2.34219L4.51494 2.64023L4.26973 2.4543L4.02715 2.64023L4.11943 2.33945L3.87422 2.15625H4.17744L4.27236 1.8582ZM5.98359 1.8582L6.07588 2.15898H6.3791L6.13389 2.34219L6.22881 2.64023L5.98359 2.4543L5.73838 2.64023L5.8333 2.33945L5.58809 2.15625H5.88867L5.98359 1.8582ZM7.69219 1.8582L7.78711 2.15898H8.0877L7.84512 2.34219L7.9374 2.64023L7.69219 2.4543L7.44961 2.64023L7.54189 2.33945L7.29932 2.15625H7.5999L7.69219 1.8582ZM9.40342 1.8582L9.4957 2.15898H9.79893L9.55371 2.34219L9.64863 2.64023L9.40342 2.4543L9.1582 2.64023L9.25313 2.33945L9.00791 2.15625H9.31113L9.40342 1.8582ZM1.70947 2.61289L1.80176 2.91094H2.10498L1.85977 3.09414L1.95205 3.39492L1.70947 3.20898L1.46426 3.39219L1.55654 3.09414L1.31396 2.91094H1.61455L1.70947 2.61289ZM3.41807 2.61289L3.51299 2.91094H3.81357L3.56836 3.09414L3.66328 3.39492L3.41807 3.20898L3.17285 3.39219L3.26777 3.09414L3.02256 2.91094H3.32578L3.41807 2.61289ZM5.1293 2.61289L5.22158 2.91094H5.52481L5.27959 3.09414L5.37188 3.39492L5.1293 3.20898L4.88408 3.39219L4.97637 3.09414L4.73379 2.91094H5.03438L5.1293 2.61289ZM6.83789 2.61289L6.93281 2.91094H7.2334L6.99082 3.09414L7.08311 3.39492L6.83789 3.20898L6.59531 3.39219L6.6876 3.09414L6.44238 2.91094H6.74824L6.83789 2.61289ZM8.54912 2.61289L8.64141 2.91094H8.94463L8.69941 3.09414L8.7917 3.39492L8.54912 3.20898L8.30391 3.39219L8.39619 3.09414L8.15361 2.91094H8.4542L8.54912 2.61289ZM0.852539 3.36758L0.947461 3.66562H1.24805L1.00547 3.84883L1.09775 4.14961L0.852539 3.96367L0.609961 4.14688L0.702246 3.84883L0.457031 3.66562H0.762891L0.852539 3.36758ZM2.56377 3.36758L2.65605 3.66562H2.95928L2.71406 3.84883L2.80635 4.14688L2.56377 3.96367L2.31855 4.14688L2.41084 3.84883L2.16826 3.66562H2.46885L2.56377 3.36758ZM4.27236 3.36758L4.36729 3.66562H4.66523L4.42266 3.84883L4.51494 4.14961L4.26973 3.96367L4.02715 4.14688L4.11943 3.84883L3.87422 3.66562H4.17744L4.27236 3.36758ZM5.98359 3.36758L6.07588 3.66562H6.3791L6.13389 3.84883L6.22881 4.14961L5.98359 3.96367L5.73838 4.14688L5.8333 3.84883L5.58809 3.66562H5.88867L5.98359 3.36758ZM7.69219 3.36758L7.78711 3.66562H8.0877L7.84512 3.84883L7.9374 4.14961L7.69219 3.96367L7.44961 4.14688L7.54189 3.84883L7.29932 3.66562H7.5999L7.69219 3.36758ZM9.40342 3.36758L9.4957 3.66562H9.79893L9.55371 3.84883L9.64863 4.14961L9.40342 3.96367L9.1582 4.14688L9.25313 3.84883L9.00791 3.66562H9.31113L9.40342 3.36758ZM1.70947 4.12227L1.80176 4.42031H2.10498L1.85977 4.60352L1.95205 4.90156L1.70947 4.71562L1.46426 4.90156L1.55654 4.60078L1.31396 4.41758H1.61455L1.70947 4.12227ZM3.41807 4.12227L3.51299 4.42031H3.81357L3.56836 4.60352L3.66328 4.90156L3.41807 4.71562L3.17285 4.90156L3.26777 4.60078L3.02256 4.41758H3.32578L3.41807 4.12227ZM5.1293 4.12227L5.22158 4.42031H5.52481L5.27959 4.60352L5.37188 4.90156L5.1293 4.71562L4.88408 4.90156L4.97637 4.60078L4.73379 4.41758H5.03438L5.1293 4.12227ZM6.83789 4.12227L6.93281 4.42031H7.2334L6.99082 4.60352L7.08311 4.90156L6.83789 4.71562L6.59531 4.90156L6.6876 4.60078L6.44238 4.41758H6.74824L6.83789 4.12227ZM8.54912 4.12227L8.64141 4.42031H8.94463L8.69941 4.60352L8.7917 4.90156L8.54912 4.71562L8.30391 4.90156L8.39619 4.60078L8.15361 4.41758H8.4542L8.54912 4.12227ZM0.852539 4.87422L0.947461 5.175H1.24805L1.00547 5.3582L1.09775 5.65352L0.852539 5.47031L0.609961 5.65352L0.702246 5.35547L0.457031 5.17227H0.762891L0.852539 4.87422ZM2.56377 4.87422L2.65605 5.175H2.95928L2.71406 5.3582L2.80898 5.65352L2.56377 5.47031L2.31855 5.65352L2.41348 5.35547L2.16826 5.17227H2.46885L2.56377 4.87422ZM4.27236 4.87422L4.36729 5.175H4.66523L4.42266 5.3582L4.51494 5.65352L4.26973 5.47031L4.02715 5.65352L4.11943 5.35547L3.87422 5.17227H4.17744L4.27236 4.87422ZM5.98359 4.87422L6.07588 5.175H6.3791L6.13389 5.3582L6.22881 5.65352L5.98359 5.47031L5.73838 5.65352L5.8333 5.35547L5.58809 5.17227H5.88867L5.98359 4.87422ZM7.69219 4.87422L7.78711 5.175H8.0877L7.84512 5.3582L7.9374 5.65352L7.69219 5.47031L7.44961 5.65352L7.54189 5.35547L7.29932 5.17227H7.5999L7.69219 4.87422ZM9.40342 4.87422L9.4957 5.175H9.79893L9.55371 5.3582L9.64863 5.65352L9.40342 5.47031L9.1582 5.65352L9.25313 5.35547L9.00791 5.17227H9.31113L9.40342 4.87422ZM1.70947 5.62891L1.80176 5.92695H2.10498L1.85977 6.11016L1.95205 6.41094L1.70947 6.225L1.46426 6.4082L1.55654 6.11016L1.31396 5.92695H1.61455L1.70947 5.62891ZM3.41807 5.62891L3.51299 5.92695H3.81357L3.56836 6.11016L3.66328 6.41094L3.41807 6.225L3.17285 6.4082L3.26777 6.11016L3.02256 5.92695H3.32578L3.41807 5.62891ZM5.1293 5.62891L5.22158 5.92695H5.52481L5.27959 6.11016L5.37188 6.41094L5.1293 6.225L4.88408 6.4082L4.97637 6.11016L4.73379 5.92695H5.03438L5.1293 5.62891ZM6.83789 5.62891L6.93281 5.92695H7.2334L6.99082 6.11016L7.08311 6.41094L6.83789 6.225L6.59531 6.4082L6.6876 6.11016L6.44238 5.92695H6.74824L6.83789 5.62891ZM8.54912 5.62891L8.64141 5.92695H8.94463L8.69941 6.11016L8.7917 6.41094L8.54912 6.225L8.30391 6.4082L8.39619 6.11016L8.15361 5.92695H8.4542L8.54912 5.62891ZM0.852539 6.38359L0.947461 6.68164H1.24805L1.00547 6.86484L1.09775 7.16289L0.852539 6.97969L0.609961 7.16289L0.702246 6.86211L0.457031 6.67891H0.762891L0.852539 6.38359ZM2.56377 6.38359L2.65605 6.68164H2.95928L2.71406 6.86484L2.80898 7.16289L2.56377 6.97969L2.31855 7.16289L2.41348 6.86211L2.16826 6.67891H2.46885L2.56377 6.38359ZM4.27236 6.38359L4.36729 6.68164H4.66523L4.42793 6.86484L4.52022 7.16289L4.275 6.97969L4.03242 7.16289L4.12471 6.86211L3.87949 6.67891H4.18271L4.27236 6.38359ZM5.98359 6.38359L6.07588 6.68164H6.3791L6.13389 6.86484L6.22881 7.16289L5.98359 6.97969L5.73838 7.16289L5.8333 6.86211L5.58809 6.67891H5.88867L5.98359 6.38359ZM7.69219 6.38359L7.78711 6.68164H8.0877L7.84512 6.86484L7.9374 7.16289L7.69219 6.97969L7.44961 7.16289L7.54189 6.86211L7.29932 6.67891H7.5999L7.69219 6.38359ZM9.40342 6.38359L9.4957 6.68164H9.79893L9.55371 6.86484L9.64863 7.16289L9.40342 6.97969L9.1582 7.16289L9.25313 6.86211L9.00791 6.67891H9.31113L9.40342 6.38359Z" fill="white"/>
</g>
<defs>
<clipPath id="clip0_181_523">
<rect width="18" height="14" fill="white" transform="translate(0 0.0292969)"/>
</clipPath>
</defs>
</svg>
