<svg width="18" height="19" viewBox="0 0 18 19" fill="none" xmlns="http://www.w3.org/2000/svg">
<path d="M12.2432 2.26953C14.3141 2.26956 15.993 3.94862 15.9932 6.01953V12.0195C15.9932 14.0906 14.3142 15.7695 12.2432 15.7695H6.24316C4.1721 15.7695 2.49316 14.0906 2.49316 12.0195V6.01953C2.49333 3.9486 4.1722 2.26953 6.24316 2.26953H12.2432ZM6.24316 3.76953C5.00063 3.76953 3.99333 4.77703 3.99316 6.01953V12.0195C3.99316 13.2622 5.00052 14.2695 6.24316 14.2695H12.2432C13.4858 14.2695 14.4932 13.2622 14.4932 12.0195V6.01953C14.493 4.77705 13.4857 3.76956 12.2432 3.76953H6.24316ZM9.24316 6.01953C10.8999 6.01956 12.243 7.36284 12.2432 9.01953C12.2432 10.6764 10.9 12.0195 9.24316 12.0195C7.58631 12.0195 6.24316 10.6764 6.24316 9.01953C6.24333 7.36282 7.58641 6.01953 9.24316 6.01953ZM9.24316 7.51953C8.41484 7.51953 7.74333 8.19124 7.74316 9.01953C7.74316 9.84796 8.41474 10.5195 9.24316 10.5195C10.0716 10.5195 10.7432 9.84794 10.7432 9.01953C10.743 8.19126 10.0715 7.51956 9.24316 7.51953ZM12.6182 4.89453C13.0322 4.89456 13.368 5.23145 13.3682 5.64551C13.368 6.0596 13.0323 6.39548 12.6182 6.39551C12.204 6.39551 11.8683 6.05962 11.8682 5.64551C11.8683 5.23143 12.2041 4.89453 12.6182 4.89453Z" fill="#121212"/>
</svg>
