<svg width="18" height="19" viewBox="0 0 18 19" fill="none" xmlns="http://www.w3.org/2000/svg">
<path d="M16.2275 2.98822C15.4775 3.35572 14.7425 3.50497 13.9775 3.73072C13.1368 2.78197 11.8903 2.72947 10.6925 3.17797C9.49479 3.62647 8.71029 4.72297 8.72754 5.98072V6.73072C6.29379 6.79297 4.12629 5.68447 2.72754 3.73072C2.72754 3.73072 -0.408961 9.30547 5.72754 11.9807C4.32354 12.916 2.92329 13.5467 1.22754 13.4807C3.70854 14.833 6.41229 15.298 8.75304 14.6185C11.438 13.8385 13.6445 11.8262 14.4913 8.81197C14.7439 7.89523 14.8693 6.94812 14.864 5.99722C14.8625 5.81047 15.9965 3.91822 16.2275 2.98747V2.98822Z" stroke="#121212" stroke-width="1.5" stroke-linecap="round" stroke-linejoin="round"/>
</svg>
