<svg width="24" height="25" viewBox="0 0 24 25" fill="none" xmlns="http://www.w3.org/2000/svg">
<path d="M19.0498 5.22939C18.1329 4.3035 17.0408 3.56936 15.8373 3.06975C14.6338 2.57015 13.3429 2.31507 12.0398 2.31939C6.5798 2.31939 2.1298 6.76939 2.1298 12.2294C2.1298 13.9794 2.5898 15.6794 3.4498 17.1794L2.0498 22.3194L7.2998 20.9394C8.7498 21.7294 10.3798 22.1494 12.0398 22.1494C17.4998 22.1494 21.9498 17.6994 21.9498 12.2394C21.9498 9.58939 20.9198 7.09939 19.0498 5.22939ZM12.0398 20.4694C10.5598 20.4694 9.1098 20.0694 7.8398 19.3194L7.5398 19.1394L4.4198 19.9594L5.2498 16.9194L5.0498 16.6094C4.22735 15.2964 3.79073 13.7787 3.7898 12.2294C3.7898 7.68939 7.4898 3.98939 12.0298 3.98939C14.2298 3.98939 16.2998 4.84939 17.8498 6.40939C18.6174 7.17325 19.2257 8.08193 19.6394 9.08272C20.0531 10.0835 20.264 11.1565 20.2598 12.2394C20.2798 16.7794 16.5798 20.4694 12.0398 20.4694ZM16.5598 14.3094C16.3098 14.1894 15.0898 13.5894 14.8698 13.4994C14.6398 13.4194 14.4798 13.3794 14.3098 13.6194C14.1398 13.8694 13.6698 14.4294 13.5298 14.5894C13.3898 14.7594 13.2398 14.7794 12.9898 14.6494C12.7398 14.5294 11.9398 14.2594 10.9998 13.4194C10.2598 12.7594 9.7698 11.9494 9.6198 11.6994C9.4798 11.4494 9.5998 11.3194 9.7298 11.1894C9.8398 11.0794 9.9798 10.8994 10.0998 10.7594C10.2198 10.6194 10.2698 10.5094 10.3498 10.3494C10.4298 10.1794 10.3898 10.0394 10.3298 9.91939C10.2698 9.79939 9.7698 8.57939 9.5698 8.07939C9.3698 7.59939 9.1598 7.65939 9.0098 7.64939H8.5298C8.3598 7.64939 8.0998 7.70939 7.8698 7.95939C7.6498 8.20939 7.0098 8.80939 7.0098 10.0294C7.0098 11.2494 7.89981 12.4294 8.0198 12.5894C8.1398 12.7594 9.7698 15.2594 12.2498 16.3294C12.8398 16.5894 13.2998 16.7394 13.6598 16.8494C14.2498 17.0394 14.7898 17.0094 15.2198 16.9494C15.6998 16.8794 16.6898 16.3494 16.8898 15.7694C17.0998 15.1894 17.0998 14.6994 17.0298 14.5894C16.9598 14.4794 16.8098 14.4294 16.5598 14.3094Z" fill="black"/>
</svg>
